<svg id="a" xmlns="http://www.w3.org/2000/svg" viewBox="0 0 449.0022 449.0063"><path d="M224.499,447.2281c122.6712,0,222.7228-100.0527,222.7228-222.7238S347.1702,1.78,224.499,1.78,1.7724,101.8307,1.7724,224.5043s100.059,222.7238,222.7266,222.7238Z" fill="#fff" fill-rule="evenodd" stroke-width="0"></path><path d="M224.499,449.0063C100.7068,449.0063,0,348.296,0,224.5043S100.7068,0,224.499,0s224.5032,100.7125,224.5032,224.5043-100.7148,224.502-224.5032,224.502ZM224.499,3.5548C102.6678,3.5548,3.5489,102.6769,3.5489,224.5043s99.1189,220.9479,220.9501,220.9479,220.9502-99.1154,220.9502-220.9479S346.3362,3.5548,224.499,3.5548Z" fill="#007046" stroke-width="0"></path><path d="M224.499,394.4313c93.5906,0,169.9236-76.3377,169.9236-169.927S318.0896,54.5784,224.499,54.5784,54.5784,130.9126,54.5784,224.5043s76.3301,169.927,169.9206,169.927Z" fill="#007046" fill-rule="evenodd" stroke-width="0"></path><path d="M52.0869,158.1043c-.1219-.3528-.1219-.826.1651-1.0975.2147-1.3852,1.2064-2.5218,2.4398-3.7845,1.9376-1.5547,3.0959-.5224,4.3292.7884.3307,1.0747.8325,2.0681,1.163,3.1405-.7802.8741-1.6676.6794-2.7967.2646-.5616.1707-1.1069.227-1.6637.4011-.2962-.1695-.8621.1489-1.1583-.0207-1.1888,1.0714-2.0688.8445-2.4784.3081h0ZM35.8847,152.8477c-.4617-.3702-.8145.0126-1.0586,1.163.405,1.4722.8008,2.9399,1.2018,4.4122.2304.1651.4657.3312.6967.4962.1043.1604.2101.3185.319.4755.4051.6565.8101,1.3142,1.2197,1.9731,1.6276,2.5731,3.266,5.1397,4.9038,7.7086,1.1052,2.1379,2.574,4.2725,2.8227,6.5376.0727.8272-.7942.7311.8266,2.9883.3752.1958.9545.748,1.5335.6015.5008-.9682.7924-1.996.6406-3.1681-.0356-1.1755-.2395-2.1953-1.1852-3.4224-.3267-.7401-.7271-1.3508-1.0548-2.0955-1.8974-4.1935-3.8628-8.2312-6.654-11.3934-.5408-.9971-1.1542-1.9731-1.6906-2.9666.1004-.858.1965-1.7151.2968-2.5733.3661-.1971.7803-.0607,1.2328.4079.2178-.0996.4486-.1993.6703-.3038.1788.0609.3351.2787.4005.4482.3917,1.4333.7584,2.5012.9979,4.1947.0477.5133.122,1.1938.597,1.7942.7184.1959,1.3795.0137,1.8413-1.4987.0623-.6783.119-1.3623.1872-2.0463.5408-.4835.8462-.5672.7196.118.1128,1.1137.3397,2.2297.4571,3.3399.039,1.0529.3306,1.9949,1.1023,2.8438.7579.2968,1.5072.1054,2.2336-1.171-.0699-.5579-.1398-1.124-.2084-1.6854.1609.0607.3219.1215.4868.1787.1226.5316.2401,1.0529.3712,1.5845.0654.5179.3214.9934.758,1.4117,1.1703,0,1.6682-.4481,1.8807-1.4117-.5614-1.9854-1.1274-3.8634-1.6945-5.849-.7837-.8799-1.2362-2.5046-2.3518-3.3491.2219-.4617.4229-.9097.5976-1.5594.2303-1.9913.9098-3.136,2.7951-2.3212-.2384,1.0448-.043,2.1563-.5001,3.4751.7665,1.2545,1.3026,1.447,2.3993,1.0276.8708-1.314,1.5633-2.6271,1.5901-4.2679-.5538-2.0257-1.1805-4.0032-4.2026-4.4651-.6313.0791-1.3415.5924-2.4353,1.485-.6089.9934-1.1927,2.1793-1.903,3.1107-.3827-.4353-.5662-1.1802-.5662-2.0119-.1649-.5786-.6015-.9109-1.0764-1.2077-.3826-.1742-1.3674.3713-2.5263,1.2994-.7012-1.6385-1.1791-3.4453-1.8717-5.0883-1.5164-1.3808-2.5796-.6785-3.1708.9508-.2921,1.7634-.0608,3.5347-.688,5.2775-.2442.4318-.2534.9841-.6015,1.5548.0086,1.2018-.1221,2.2308-.3398,2.9973h0ZM39.6777,148.4136c.1003-.1788.3055-.2533.4532-.1696.1443.0836.1833.2957.079.4743-.1002.1789-.3012.2521-.4532.1707-.1489-.0882-.1833-.3012-.079-.4754h0ZM30.5529,159.6031c-.6491-5.0093,1.211-11.4817,2.444-16.0671.9233-1.1194,2.143-.9498,2.3991.0343.027,1.6339-1.5588,3.6459-1.6498,7.6401-.6674,1.9947-.5231,4.9164-.7356,7.3466-.5586,2.562-2.2521,2.4301-2.4577,1.0461h0ZM27.5091,147.2723c.4228.1788.8754.1479,1.2627.1927.2653.4479.5185.9279.7849,1.3713,1.6023.4136,2.2593-1.4551,1.5501-2.7223.082-.2487.1226-.432.204-.684.3575-.2613.6182-.5488.8536-.9934.1444-3.5794-1.2539-3.9287-3.2185-3.0615-.8443.6404-1.6413,1.7852-2.1729,3.7019-.027.7151.1564,1.3543.7361,2.1953Z" fill="#007046" fill-rule="evenodd" stroke-width="0"></path><path d="M82.7618,102.7721c-.0819-.2738-.0951-.5923.2058-1.0233.6404-.8844,1.3536-1.6469,2.1339-2.2782.5707-.0613,1.0369-.487,1.6207-.6272.3735-.3308.6788-.4825,1.0455-.8148.6182-.4955,1.4192-.6566,2.0028-.5654.7064.4749,1.2678,1.1017,1.537,2.0596-.0521.4793-.0297,1.0632-.2783,1.6246-.3696.9711-1.1973,1.874-2.216,2.5305-.3323.1917-1.0677.3367-1.8963-.0344-1.1704-.0045-2.1386-.0269-2.9084.0743-.688.1479-1.1583-.1487-1.2467-.9457h0ZM63.3417,90.1727c.1353.2383.1519.6136.0997,1.0622-.4709.6788-.8833,1.416-1.0144,2.2737-.3393.2309-.4481.7093-.7328,1.037-.2785.9917-.5254,1.9644-.6611,3.074.2698.6622.645,1.1939,1.6498.8845.4756-.2354.8508-.5568,1.3286-.7922.6582-.6136,1.2678-1.2587,1.8516-2.0688.0177-.283.2308-.4141.2261-.724.1835-.3959.3621-.7626.4928-.9573.4233-.0179.6616.2354.7225.7624-.0475.4917-.1043.9888-.152,1.4804.2877.4097.5931.81,1.1929.8714.6627-.3874,1.0202-.5317,1.8423-.405.3323.6043.5631,1.4235.554,2.0165-.3232.8575-.1353,1.5799.1431,2.3259,1.0766.5305,1.6116-.0046,2.134-.9545.3008-.0744.5316-.0091.9236.3484.1219.2623.2578.4439.3797.7057.392.3827.5048.6657.5002,1.0713.1925.3277-.0309.5316-.1828.8101-.3265-.1565-.6272-.4525-.8358-.3266-.2829.0958-.4881.2652-.767.3667-.3008.0997-.6045.0819-.7236-.1535-.539-.1342-.983-.3174-1.5279-.448-.3713-.1833-.9281-.3489-1.3898.1306-.9143.1225-1.5278-.0476-2.1637-.0355-1.7244.715-1.9393,1.8348-1.8557,3.0368.1313.1565.3438.378.4795.5344.0076.2058.0682.4051.0773.6108.2963.2783.4887.566.9059.7058.0745.3305.2439.618.4274.9801.5401.2355.6089.7533,1.4367,1.1052.1611.2887.4354.4658.6628.6851.7178.0338,1.3491-.1226,2.0509-.4802.4273.0838.7104.27.998.514.3735.0435.8055-.122,1.1585-.3391.1518-.2132.304-.4275.4569-.6405.2522-.5093.5054-1.0145.7615-1.525.284-.0958.5625-.1953.8456-.295.2177-.1135.4394-.2309.6542-.3439.0561.238.1128.4826.165.7221-.0699.1701-.1444.335-.2143.505.1536,1.0932.3661,2.1175.5109,3.2153.1296.9531.1771,1.9854.2992,2.9398.4972,1.0233,1.996,1.3332,2.3963-.0697.0252-.5976-.0091-1.0158.0178-1.6116.0687-.676.1209-1.3595.0521-2.1564-.0268-.4485.0252-.8283,0-1.2764.1341-.6272.0775-1.1749-.1666-1.6458.4227-.165.6198-.0568.7458.3082.1777.2757.3609.554.5438.8284,1.0751,1.1274,2.2834,2.1953,3.2138,2.3826.2669.0091.5363.0091.7985.0137,1.0662-.0447,1.6321-.6405,1.8379-1.9438-.2058-.2962-.3397-.6657-.5409-.9619-.2875-.3711-.5969-.7195-.892-1.089-.2399-.2487-.4272-.5063-.6672-.7578-.3393-.444-.7443-.8715-1.0616-1.3332-.2711-.3529-.3713-.618-.7105-.6966-.1181-.2177-.4485-.4009-.566-.6136-.3053-.3369-.6106-.6061-.9114-.806-.1432-.4543-.3042-1.0586-.9263-1.8601.052-.2309-.0699-.3754-.027-.6015.24-1.2633.5707-2.5781,1.2018-3.737-.0205-1.6722-.4525-2.9962-2.1728-3.4533-.4275-.039-.7356-.1655-.7831-.6318.1249-1.3028-.0884-2.7224-.8238-4.3069-.1061-.6716-.3576-1.4816-1.3149-1.0501-.6404-.2005-1.0294.0046-1.4596-.1354-.4273-.0298-.9591.2785-1.4941.6492-.3484.4394-.6668.8107-1.1331,1.5461-.3919.4664-.8102.9052-1.3492,1.1245-.2709-.0703-.554-.28-.8107-.4662-.3615.1174-.4404.3826-.7918.4394-.2966-.4394-.645-.606-.8328-1.6683.4051-.5139.5882-.9755.5438-1.3983.441-.4394.7234-.8714.8277-1.4895.2491-1.3624-.3959-2.1116-1.8196-1.8688-.2801.1622-.566.4881-.7716.9721-.2915-.0039-.6043.1089-.81.5529-.2561.444-.4395.8147-.727,1.1361-.484-.7877-1.0724-1.419-1.6024-1.8762-.527-.3844-1.1675-.3576-1.8556-.1357-.5155.3528-.8983.8238-1.1376,1.4241-.5185.6623-.3399,1.2896-.0688,1.9031.6134.7848,1.4672,1.434,2.3384,2.0744h0ZM73.4898,92.7375c.2441-.5707.527-1.1199,1.1153-1.5204.4006-.3528.6567-.2223,1.0502.2794.0906,1.0753.3913,2.1123.7487,3.0313.0437.5047.1267,1.0839.1702,1.5885-.1443.4097-.3891.5203-.5707.2801-.3395-.4749-.7102-1.1154-1.1291-1.5026.1359-.4135-.3528-.6851-.7626-.7848-.3687-.3782-.8443-.6089-.622-1.3715Z" fill="#007046" fill-rule="evenodd" stroke-width="0"></path><path d="M114.562,52.882c-.5918.8251-1.4197,1.4794-1.8161,2.416-.9451.3827-1.4161.9933-1.8985,1.7158-.2441,1.3502.2949,2.064.9351,2.4913.6289.3828,1.1422.3708,1.9688.2562.4096-.0344.8547-.1208,1.2942-.4616-.0745-.2339.3264-.4258.6003-.5484.188-.1517.3099-.3483.502-.4956.2605-.6496.3573-.955.5435-1.7604.676-.5139,1.1722-.7791,1.5119-.2561.4452.9349.8936,1.8676,1.3325,2.8042.0613.2877.161.5931.1088.8623-.0865.405-.1832.7149-.3481.9625-.231.2348-.3874.5355-.6136.7709-.6749.8715-.919,1.6248-1.2988,2.4486-.1387.326-.5437.7968-.9876,1.0799-.9276.7876-1.5521,1.6898-2.0252,2.4261-.2355,1.2541-.3277,2.496.5654,3.1005.157.091.2086.3144.3695.405.955.6703,2.0956.1878,3.533-.8192.3798-.5048.9934-1.2151,1.1063-1.8632.4187-1.1759.8403-2.344,1.2585-3.5202.4572-.3917.7804-.3826.9751.031.2223.5183.5019,1.0931.9109,1.7994.0034.2783-.1043.405-.1775.609.1385.3232.2565.6965.4342,1.093-.1123.2263-.1123.405-.0701.554.2018.1609.179.4662.3852.6272.095.1518.3918.2441.4961.3913.4434.31.8145-.004,1.14-.3007.2578-.4617.385-.9012.3758-1.3239.1387-.3621-.0527-.5707.0608-1.2495-.1353-.1966-.1742-.5093-.4183-.9327.086-.1557.039-.4004.0252-.527-.1696-.609-.2567-1.0792-.4263-1.6935-.4617-1.3027-1.1193-2.5091-1.5765-3.8107-.2314-.5587-.0699-1.1543-.0733-1.6384.3482-1.4283.5568-2.9962.8605-4.5099.2806-1.0437.5671-2.0846.8513-3.1301.2256-.326.6348-.5019.9795-.4114.392.0745.5879.3014.7494.8685.1604.0328.3001.2251.4616.2624.1869.2201.3393.4612.4573.7252.6657.366,1.3978.6789,2.2606.852.6039-.106,1.2443-.1674,1.7726-.6171.6082-.1008.9749-.1488,1.2752-.1603,1.3428.2095,1.6818.7263,1.573,1.4815.0481.3797.0953.7624.1478,1.1422-.0252.8743-.4101,1.442-.6565,2.2388-.7241.4091-1.4689,1.0363-2.2651.9006-1.3337-.0344-1.8607.5316-1.6957,1.2587-.0561.1695-.0093.3397.2749.9412.2441.0699.4307.027.7184.1919.3621.5574.6142,1.0191.7493,1.5026-.1786.5008-.3918.9402-.6873,1.2203-.3153.692-.1835,1.1274.4617,1.2403.4743.0224.8569.0837,1.2145-.1267.6931-.2308,1.1663-.5435,1.6199-.9617,1.1596-.0923,1.037.1397,1.3589.3304,1.6066.4795,2.8222.8978,4.1821.8891.4571.0344,1.3234-.052,1.8941.2086,1.1182.0521,1.0758-.767.88-1.9781-.3931-.6881-.6017-1.419-.8458-2.3723-.0995-.3528-.2692-.7459-.9096-.8324-.3438-.283-.7929-.3444-1.1413-.6273-.213.1089-.432-.0357-.723.1134-.3449-.1134-.77-.2355-1.1548-.4228-.4778-.1954-.7173-.4754-.692-1.0231.1648-.7626.3092-1.4851.6668-2.2521.1855-.7534.339-1.5174.4525-2.2325.2441-1.2494-.8101-1.4608-1.0185-2.0063-.2796-.3929-.5453-.7726-1.1241-.8173-.2966-.231-.6404-.4333-.9371-.663-.8927-.2544-1.933-.3724-2.9402-.472-.9658.039-2.0818-.0681-3.2527-.3231-.3528-.6032-.6622-1.1212-.9362-1.7633-.2737-.621-.5098-1.254-.7057-1.9106.1169-.2892.2578-.5213.3655-.809.6405-.5165,1.1068-1.2373,1.6934-1.9196.3576-1.1138.8284-2.3844.9418-3.58.409-1.1413-.4616-1.4625-1.415-1.7203-.267-.0669-.6313.0326-.8628.04-.2051.1043-.323.0952-.5361.1982-.4836.0523-.9889-.0939-1.5905-.4617-.4123-.3323-.8397-.606-1.2831-.8238-.7677-.4571-1.2421-.2441-1.4253.6331.0697,1.5221-.0871,3.1754-.0161,4.7956.2039.8656.3037,1.6682.4778,2.4543-.1294.3276-.2395.6795-.3655,1.0042-.0607.7889-.1445,1.5474-.2051,2.3349-.1478.3949-.2968.7867-.4481,1.1826-.4147,1.6934-.8328,3.3834-1.25,5.0739-.314.7311-.6851,1.4105-1.1199.7626-.3913-.2532-.6135-.7935-.5883-1.549.24-.6136.5231-1.0737.7631-1.6872.1466-.3353.1466-.959.37-1.2913.1226-1.5921.5052-2.9514-.0401-4.3322-1.1406-1.6029-1.9284-1.3004-2.0372.1651.0046.3471-.0653.6927-.0653,1.0444-.1489.3305-.2961.6731-.4451,1.0047-.0779.2474-.1564.4859-.2382.73-.6676.767-.9711.1117-1.186-.6137-.405-.5775-.8146-1.1526-1.2197-1.7317-.4348-.5054-.8668-1.013-1.297-1.5195-.7493-.4525-1.1067-.1219-1.2809.5633.188.7607.4347,1.7467.889,2.2737.1696.471.2561.684.3471,1.1934.3576.959.7942,1.6944,1.229,2.4198.1786.8954-.471,1.3795-1.0409,1.7678Z" fill="#007046" fill-rule="evenodd" stroke-width="0"></path><path d="M185.2211,29.5584c-.2611-1.0575-.9453-1.348-2.0038-.9488-.566.7014-1.2019,1.2003-1.6729,1.5727-.5087.3974-.8628.8743-1.1973,1.2539-.2269.5553-.6004.9649-.8307,1.5178-.4182.4662-.8467.8386-1.1675,1.3266-1.4988,1.1321-.6587,1.6683-.5798,2.4784.1352.0997.2968.2234.3736.6117.0538.2327.2531.3845.3323.6154.5956.2968-.0701-.1192.8053.3769.6006.0745.9625-.3843,1.508-.9068.134-.781.6427-1.5685,1.0322-2.3788.1468-.3184.3907-.4749.7356-.4749.1947.1594.2957.098.1947.7236.0654.9516.0264,2.118.1834,3.0174-.1135.6497-.1296,1.2523-.1603,1.7976-.0575.7208-.0825,1.4043-.1364,2.1255-.0951.7775.1832,1.2879.8892,1.4667.3186.3861.1694,1.0409.4146,1.643,1.0048.174,1.6361.0939,2.098-.8743.197-.6393.3323-1.5433.3928-2.6811-.3275-2.5929-.5784-5.1932-.7354-7.8038.0079-.6032-.0355-1.2558-.2143-2.0073-.0184-.4171-.0344-.8313-.0481-1.2465-.0699-.4011-.142-.8033-.2132-1.2049h0ZM176.6451,27.7383c.44-.2308,1.0725-.5527,1.4815-1.1228.5179-.4187.944-.8593,1.7543-1.309.7195-.8566,1.2716-1.2111,2.1791-1.8263,1.0048-.5094,2.5941-2.0178,3.8589-2.9505,1.0049-.7859,1.8424-.7487,1.7852,1.4122-.149.5867-.4743,1.0008-.6222,1.5875-1.2856,1.6471-2.1093,2.7612-3.1978,3.8646-.7448.3426-1.1893.8657-1.7428,1.3613-.3998.7029-.8845,1.3239-1.6339,1.9792-.9222.554-1.8285.8043-2.729.7568-1.469-.6686-2.4268-1.9242-1.1333-3.753h0ZM194.0641,12.6338c.6909-.3334,1.4015-.4813,2.286.9814.0904.3815.1695.6684.2692,1.0482.0229.8714-.1949,1.6833-.5363,2.3385-.8352.6744-1.5662,1.1034-2.0819-.4858-.1156-.3528-.3173-.6313-.4307-.9813-.4297-.2766-.5041-.6731-.5316-1.1617-.1868-.8147.2141-1.5067,1.0253-1.7393h0ZM199.0678,15.745c1.6807-.822,3.184-.1089,3.0579,1.8826-.5751,1.0123-1.3129,1.5278-1.6384,2.3928-.2566.3547-.2738.2327-.3964.3501-.3965.2073-.9545.3724-1.3989.1553-.518-.0671-.8617-.5139-1.2443-.9338-.2785-.5231-.4665-1.1051-.4275-1.8305.6485-.736,1.202-1.5174,2.0476-2.0165h0ZM204.3727,17.6751c-1.0633.9946-1.9983,1.9776-3.0661,2.9726-.6016.35-1.155.7907-1.6637,1.132-.4525.1295-.8536.4658-1.2948.7654-.9751.667-1.6933,1.3073-2.3991,2.118-.3575.4462-.4834.853.2395,1.1016-.1216.1329.0915.3352.134.4859.0745.271.1627.5076.6359.4795.4893.1638,1.1389-.0063,1.7954-.6422.149-.0682.2955-.1352.4445-.2021.4525-.1537.8318-.3295,1.1848-.471.3001-.2413.6622-.4527.8846-.6834.2966-.3323.5751-.3621.8489-.0877-.0573.2382-.1135.3837-.1741.621-.1524.3025-.2177.6938-.2086.9796.125,1.6532.243,3.3032.3689,4.9549.0481,1.2167.0952,2.4335.149,3.6531.0481,1.4792.0596,2.8628-.1581,4.3683-.188.4468-.1696,1.0483-.1788,1.5668.0183.2029-.0252.4721.0276.6984-.2132.3575-.2831.7569-.1444.9847-.1136.0682-.2567.5736-.2475.7299-.3358.759-.1135.3857-.244.4915-.3804.9843-.4195,1.7038-.2269,2.366.5752.8462,1.4504.4354,2.1344-.1117.14-.2543.4435-.9991.392-1.4115.2956-.3964.1398-.5185.4353-.9144.1433-.4049.3656-.6244.5054-1.0277.165-.3201.2349-1.3044.252-1.9169.2235-.664.3701-.9606.5924-1.6246-.0137-.337.1695-.7122.0654-.8967.1786-.3053.1969-.5379.2783-.9177.0791-1.2075-.0906-2.551-.2783-3.8154-.0082-.3277-.2052-1.0764-.6313-1.2735-.0518-.2308-.0609-.3351-.1089-.5614-.109-1.1853-.2166-2.0193-.4137-3.1944-.1649-.582-.2613-1.1062-.4273-1.6843-.1788-.6525-.078-1.6039-.157-2.3889-.204-.7831-.0379-1.2598.5019-1.4299.4961-.4703.9062-.5746,1.4024-1.0456.488-.5092.936-1.4922,1.1537-2.147.1089-2.7362-1.1205-2.7854-2.4037-2.0212h0ZM186.6682,27.433c.6475-1.3584,1.7416-2.1151,2.8084-3.1795.1558.0326.527-.5064.5614-1.6219,0-.9859.0046-1.978.0046-2.964.0481-.5.0996-1.0037.1488-1.5009-.056-.6079.125-1.1711.7963-1.3349.6359-.0252,1.0897.3966,1.3852,1.2633.0952.5333.243.9991.2569,1.5444.244.6267.4615,1.1275.3666,1.8183.4571.3632.5039.0344.8891-.0464-.0712-.4331-.0276-.3976-.1019-.8306.1019-.4607.4055-.758.6885-1.0679.2657-.5121.6919-.6077,1.2936-.2922.2658.2785.5315.569.7974.8519.0997.8966-.0252,1.6905-.3791,2.3832-.2441.6805-.4928,1.23-.7805,1.486-.4697.4647-.9405.9327-1.4102,1.3972-.0747.2964-.1491.5867-.2213.883.0423.9354.2555,1.9678.1731,3.3451.0527.4902-.0173,1.0844.0354,1.5759.0997.4108.3048.4003.6267.3541.3621-.2487.7449-.3353,1.1413-.5851,1.4115-.2605,2.1952.5495,1.6419,2.255-.5133,1.1108-1.8035,1.808-2.1609,2.0772-.604.1072-.8055.1311-1.4803.5437.0572.4217.0183.5299,0,1.0512.1923.6657.2267,1.1755.1431,1.701-.3563.7837-.801,1.3497-1.3852,1.6412-.4434-.1759-.9349-.3649-1.1538-.8294-.1432-.1147-.1822-.2086-.3312-.3203-.2441-.3558-.4788-.6405-.4823-1.1956.0688-.3175.1387-.9298.2132-1.2512-.3049-.3931-.5098-.1592-.8491-.1181-.2922.2642-.5627.365-.8456.629-.4181.2098-.8009.1158-1.18-.1133-.3278-.2132-.4882-.5346-.4928-.9608-.0298-.3081-.0652-.6147-.095-.9246-.0276-.5928-.0928-1.1544.6267-2.1729.6096-.7196,1.1067-1.5537,1.6945-2.4439.3266-.4229.4961-.7356.8101-1.159-.0264-.5522-.056-.7177-.4617-.7075-.3484.7912-.6622,1.1086-1.3978,1.5118-.267.2068-.5272.4153-.7929.6286-.6234.2966-1.3166.4525-1.721-.3353-.1914-.5522-.1616-1.191-.2177-1.7569.0389-.4275.4411-.8256.8375-1.2289Z" fill="#007046" fill-rule="evenodd" stroke-width="0"></path><path d="M253.1054,19.4803c.8099-1.7502,1.6385-2.8832,3.3765-1.658.2476.4142.4044,1.1617.7219,1.1441.3712.9618.2314,1.3893-.652,1.9684-.3186.1421-.6805.2532-1.0587.2074-1.2328.6657-1.7117.5408-2.1048.3735-1.1136-.2217-.8787-1.0409-.2829-2.0354h0ZM256.373,26.3148c-.6278-.429-1.1422-.4412-1.5856-.3994-.9063.1873-1.3853.6462-1.3383,1.4312.3403.1757.598.4588.8628,1.0666-.3576.9723-.5133,2.0045-.566,2.916-.1341.296-.3691.4377-.4962.7339-.2531.4009-.4617.7807-.7148,1.1858-.1606.302-.3828.9154-.4092,1.4208-.4869.916-.4616,1.8538-.4263,2.8534.1949,1.2868,1.0187,1.7141,2.5082,1.017.9498-.6268,1.6865-1.7158,2.2183-3.5564.1259-.317.2955-.6641.4296-.9814.1042-.6675.4755-1.2896.5797-1.9525.2303-.5912.3345-1.2345.566-1.8285.2211-.4097.3839-.8256.6061-1.2352.6084-1.0587.3667-1.7038-.2716-2.1683-.378-.0494-.6003.0212-.6611.2039-.2829.1357-.5522.1461-.7916.0257.0079-.2698-.1455-.578-.51-.7326h0ZM250.437,31.8087c.1132.4108.2553.6657.3734,1.0752.2738.4229.9464.9751.4354,1.7858-.0218.4421-.1181.743-.1386,1.1823.1259,1.069-.1833,1.5727-.5008,2.1221-.393.1415.1203.1746-.2714.3219-.1698.3007-.7083,1.2998-.5615,1.3509-.291.3437-.4928.5419-.7849.8862-.7356.1547-.8741.6966-1.942,1.8109-.3299.079-.5649.0372-.6875-.1146-1.0324-.2086-1.1583-1.1217-1.3542-2.0883.118-.6908.3493-1.4922.4616-2.1831.2224-.2263.2738-.4458.4915-.672-.0126-.2383-.0812-.122-.0905-.3604-.0928-.1013-.0974-.5-.1695-.6834.1341-.4004.2084-.8771-.0745-1.4283-.0481-1.0396.5179-2.4977.5523-3.7501.0745-.7865.4137-1.3415.9327-1.6143.4788-.2188,1.1149-.1936,1.4895.2728.653.6593,1.1848,1.4264,1.839,2.0864h0ZM262.8535,18.984c.4479-.1609.7665-.3441,1.2099-.512.7987-.4721,1.9788-.9383,3.1978-1.2242.4802-.1788,1.297-.2653,1.8813-.3266.5581-.1593.9453-.472,1.4644-.597,3.5461.3948,3.5278,2.7641,2.5733,3.604-.7927,1.1527-1.8606,1.713-2.8838,2.1237-.1559.2876-.3047.5455-.4525.837-.3049.4497-.6749.8175-1.1229,1.0724-.2488.4825-.4801.9727-.558,1.4787.1306.5871.4181.9728.6439,1.4821.0917.35.1043.6405.5191.6925.0745-.1696.4525-.432,1.1021-.3323.5662-.2737,1.1239-.2543,1.6625-.5659.5237-.2276,1.6075-.283,1.8126.1031.4103-.1164.6842-.1563,1.0932-.2728.9967.1119,2.3338.4366,2.7865.6359.4662.3295,1.1513.6106,1.1467,1.513.0688.8371-.2439,1.6145-.8455,2.2508-.487.2648-.8008.8846-1.3759,1.1315-.4057.2222-.6361.2058-1.005.4336-.8891.8177-1.5032,1.233-2.2479,1.5446-.4972.2916-.8754.7624-1.9033.8725-.5361.3518-1.0333.4796-1.5433.7372-1.0402.3083-1.7586.5569-2.1504,1.2273-.0081.3648-.1169.3842-.1261.7521-.1971.3873-.2578.5184-.4055,1.3256-.1914.2097-.2785.5627-.4653.7665.165.5288.2464,1.1322-.0368,1.4242-.0904.4246-.1339.329-.2176.6594-.1215.4218-.1822.6629-.3002,1.0873.0138.3994-.1856.8909-.1695,1.2856-.0951.8071-.2566,1.4024-.7746,1.9506.0115.3965-.4882.7031-.4754,1.104-.1513.287-.3048.5775-.4572.8661-.1788.6245-.3667,1.2513-.5454,1.8786-.6657-.0838-1.3314-.1683-2.0027-.2504-.1742-.3724-.353-.7402-.5272-1.1143.0264-.1488.0562-.3036.0745-.4542.0435-.2337.0183-.5506-.2783-.6743-.1227-.2635-.1135-.782.2874-1.5772.1043-.5464.204-1.3107.9144-1.9987.0814-.3203.2039-.5557.4871-.9355.0216-.6073.3092-1.0382.4536-1.5875.0481-.3081.0871-.7177.2176-.9098.0298-.5241.0183-.8817.1788-1.5725.1182-.4246.1272-.9337.3735-1.3394.3015-.6507.5191-1.3342.3851-1.9701.0092-.5259.016-.8828.0251-1.4042.2051-.2819.3186-.8416.5272-1.1199-.1263-.593-.4057-.6703-1.0095-.4606-.228.1505-.3278.2772-.6978.4932-.6015.0344-1.0724.3025-1.4723.7224-.2567.6147-.7356,1.0272-1.2627,1.069-.2875.1879-.5051.295-.7975.4795-.936.2269-1.6727.0522-1.9913-1.3177.0355-.4915.1135-.9446.2361-1.424.1043-.5078.3001-1.0633.574-1.5411.2829-.2103.7023-.4841,1.4425-.7896.3484-.5154.6062-1.0518,1.2192-1.5278.3058-.1329.2485-.2297.5545-.362.1295-.3398.4434-.8771.9098-1.0948.3173-.5259.5877-.8936.905-1.4179.0482-.3798.0357-.9516.9935-1.4505.3965-.46.7138-.7,1.1067-1.1618.0653-.2933.2567-.8112.6885-1.1406.2304-.4663.5318-.9338,1.0657-1.0828.3184-.4571.244-.6267-.2302-.5063-.7837.1013-1.5502.7017-2.2573.9055-.8124.4658-1.3394.4275-2.1414.353-.5739-.1357-.8191-.4005-.8937-1.427.1491-.5401.432-1.0187.9109-1.4192h0ZM269.0245,29.9767c-.4123.63-.3917,1.601-.661,3.0247.1925.3816.4262.2801.7138.283.5832-.4635,1.1241-.6525,2.0475-1.0484,1.2283-.5167,2.3338-1.199,3.2046-2.2118.6062-.9682.2876-1.3687-1.2271-1.3565-.7574.3156-1.5503.6346-2.4577,1.2792-.7664.24-1.0448-.0224-1.6201.0298h0ZM264.0165,29.1499c-.0653.1461,0,.267.2005.3637.2429-.1133.4868-.2708.7401-.4691.0344-.323-.095-.5018-.3746-.5242-.3083.1474-.4915.3576-.566.6296Z" fill="#007046" fill-rule="evenodd" stroke-width="0"></path><path d="M320.5083,46.758c-.4194.0551-.6015-.2217-1.0152-.1694-.6759-.6201-1.6922-.4814-2.532-.3084-.7952.2888-1.462-.3471-2.264-.0568-.3633-.4708-.9947-.6076-1.5515-.9142-2.0462-.5082-2.8116.9619-.5693,2.2996.6049.417,1.4057.7859,2.2754.688.4296.1547.7596.3873,1.0461.7414-1.1584.7938-2.2996.2446-3.1898.362-.6681-.0431-1.1561.079-1.8172.0326-1.5342-.9322-2.4313.0475-1.1115,1.0966.9029.5179,1.9776,1.2671,2.8621,1.6692.0092.4332-.5235.5214-.583.9471-.959.441-1.1974.7578-2.0648,1.089-.6313.1919-1.3371-.0705-1.7987-.0538-1.1642-.0224-2.5322.186-3.4076.1805-.432-.4516-.8994-.5437-1.0668-1.1395-1.8009-.4068-2.4094.5584-2.996,1.3181-.3094,1.3848.7929,2.4257,2.1563,2.4033,1.0631.2532,2.2375.2308,2.8483.2755.7265.3083.4526.6434.0447,1.2586-.3105,2.2073,1.7989,3.01,3.1267,2.0595.8972-.2348,1.6214-.8666,2.1713-1.5323.7299-.6241,1.4483-.758,1.7014-1.3074.7357-.2785,1.2959-.5305,2.0373-.8101,1.9958-.8489,3.3571-1.1933,4.8373-2.0899.6279-.1742,1.3727-.1918,1.9868-.4508.8364.1083,1.6202-.3488,2.4577-.24.9704-.2366,2.4174.6777,3.9494,1.1004.7357.3872,1.281.8658,1.4596,1.0438-.0927.3621-.4799.5455-.5281.8331.0963.8191-.1811.8754-.7149,1.2539-.3414.353-1.123.1043-1.3784.0087-.3184-.0087-.637-.0178-.9499-.027-.4353-.1472-.8615-.4079-1.2935-.5522-.2533-.1786-.5064-.2487-.7527-.4229-.3793-.0211-.9718-.1254-1.3441-.0612-.5179.2756-.3598.0836-.8731.3575-.2966.1135-.8099.9068-1.1078,1.0203-.4699.3081-1.0725.8828-1.3486,1.6367-.2979.3306-.5809.6628-.8732.9934-.3985.2531-.7951.5139-1.1881.767-.37.4825-.6679.9351-.37,1.1881-.1753.2487-.3484.5009-.5328.7495-.1157.436-.6257.2485-.3335,1.5679-.1489.5007.0917.9368.3128,1.4689.2327.7488.2327,1.0529,1.9294,2.146,1.1802.8323,2.8209,1.6814,4.2485,2.6999,1.1402.4887,1.0118,1.163,3.4901.6853,1.4747.1472,2.0498-1.5165,2.1208-3.3812-.3036-.7012-.542-1.3938-.849-2.0904.2922-.7746-.818-1.037-1.7358-.8582-.48.8101-.9682.806-1.2328.7493-.8491-.3081-2.5827-1.3852-3.2529-2.1077-.3369-.4703-.1135-.3872.1421-1.6859.3402-.6091.0481-.7356.6943-1.3371.888-.0688,1.4895-1.576,1.8585-1.903.653-.0122,1.242.0131,1.7553.2051.849.4094,3.0053.779,4.2829.2474.5751-.0475,1.2156-.1209,1.8859-.4961.4227-.6491.7138-1.0363.8754-1.4638.3517-1.4281-.5065-3.0058-2.3649-4.5887-1.478-.7162-3.0444-1.5457-4.739-1.8138-1.478-.684-4.0996-.6507-4.7091.1157-.8672.0854-1.3199-.0355-2.1838.0494-.1134.2187-.7837.1115-1.3314.2801-.5155.3259-.6885.3958-1.2602.378.1098-.5139.873-.6404,1.2545-.9601.3358-.2417.4469-.605.3656-.9578.1111-.3593.0183-.6434.1282-1.0071.1399-.6137.715-.6807,1.3762-.6137.6049-.055,1.3015-.2635,1.9157-.542.4709-.7755.307-1.3284-.3816-2.0239h0ZM321.6048,38.8099c.5454.0642,1.0931.2979,1.6384.3632.3839-.4915.723-1.3016,1.1344-1.8155,1.2099-.4244,2.1482.2698,1.7758,1.6293-.402.6749-.2325,1.2139.8903,1.9152,2.4062.7847,4.5396,1.0826,6.8116,1.36,1.4505.0475,2.1632-.6078,2.2791-1.1692.8282-.6824,1.51-.6537,2.0048-1.0616,1.6798-.106,1.7542,1.0616,1.1401,1.8447-.1398.6554-.5328,1.1681-.7149,1.7948.2624.2365.6015.3667.8639.6078,1.9329,1.5605-.9464,2.079-2.287,1.6899-.3963-.1203-.8547-.4507-1.251-.5687-.7186.6274-1.3144.8328-2.02,1.1348-.4379.1833-1.2891.216-1.8849.1507-2.7291.6879-4.8133.7533-7.3398,1.2149-1.0816-.2661-1.1972-.9113-1.1916-1.6141.5902-.5289,1.0427-1.0753,1.6053-.9534.5133-.3558,1.1172-.417,1.8676-.4795.5958-.6881,1.7461-.6267,2.5744-.7031.6487.1416.9144-.1592,1.0335-.3957-1.1354-.3649-2.523-.0224-3.6697-.4543-.1938.0567-.5902-.256-1.1322-.3351-.5396-.0344-.7263.3706-1.1319.7596-.0688.9218-.4881.8743-.7321,1.123-.439.3453-.7746,1.0276-1.085,1.2465-1.894.6295-2.5586-.8833-2.7819-2.0285.0183-.8044.3219-1.1156.9417-1.3791,1.0633-.7687.7229-1.1217-.4354-1.7099-.3837-.0533-.739-.4183-.9648-.856-.8524-.3321-1.4928-.9716-1.6142-1.3497.2348-.6405.7355-.7683,1.6888-.566.676.2635,1.3186.3415,1.9867.605Z" fill="#007046" fill-rule="evenodd" stroke-width="0"></path><path d="M425.8234,151.0007c1.0897.0355,1.8941.3094,2.5735,1.3189.6518.3757,1.2683.7813.6873,1.5479-.0951,1.3713-.8571,2.3556-2.1321,2.8265-.9477-.2795-1.6386-.7941-1.8379-1.5021-.1753.1078-.2326.1603-.4055.2601.5751.8937.3495,1.5594-.7139,1.8516-.4618-.0653-.668-.039-1.1687-.2086-.2441.1857-.6576.2693-.9442.3482-.1363.5261-.7676.6566-1.164.8663-.8995,1.0369-1.5491.7883-2.0853.7321-1.722.1559-2.3407-1.329-2.7876-2.6707-.9418-.8708-1.5938-1.5846-2.1863-2.4782-1.1204-1.1069-1.9477-1.7817-2.6362-2.6915-.9569-.8192-.2945-2.3168,1.337-2.5435.1102-.6749.4354-.6532.8227-.9499.6405-.2474,1.4506-.3083,2.1357.118.5535-.1271.8845-.2521,1.4437-.3793.3576.0997.7219.196,1.0723.2968.2979-.3094.1857-.3048-.0022-.6496-.2027-.3747.2739-1.0187.8789-1.14.1341-.6979.6106-.6234,1.2591.2165.0218.7447-.1753,1.1984-.7711,1.9214.1043.4962-.1226,1.0759-.6611,1.1366-.2441.1043-.5843.1971-.8284.3049-.8639.5281-1.7427.7583-1.2776,1.951,1.2238.684,2.4452,1.3682,3.6665,2.0465.6554-.2831,1.2329-.6703,1.9065-.9533.6372-.88,1.7073-.966,2.648-1.3554.3907-.0723.7687-.1468,1.1709-.2212h0ZM417.3219,141.9365c-.471-.3781-.7711-.426-1.1435-.3034-.8605.3127-1.3405.4915-2.3557.9795-.6736-.1788-1.4448.0607-1.785.1788-1.0542-.2099-1.9858.008-2.9458.2944-.3061-.0333-.604.0046-.8479.1409-.2842.0607-.7275.2876-1.0128.4617-.5935.1306-1.2994.1513-1.7576.5925-.2121.1478-.2774.3573-.4893.5052-.3896.047-.6875-.2223-1.0095-.5281-2.1025-2.5483-3.562-4.5774-3.726-6.0967-.503-1.9438-1.1378-2.5098-1.7519-2.3695-.6781.0997-1.2717.4658-1.8377.8399-.4491.7012-.3839,1.6291-.0148,2.7447,1.0666,1.7421,1.7254,2.7344,2.7142,4.0245,1.5777,1.699,2.8357,3.388,4.3871,4.7686,1.0838,1.6156,2.3889,2.9446,2.3764,3.8063-.7654.1581-1.5422-.0516-2.2423-.2511-.7539.0769-1.2845.5135-1.9603.7918-.8216.488-1.9033.5753-2.3673,1.351-.3575-.5179-.7447-1.2719-.9888-1.3991-1.0552-1.5204-1.5549-2.5814-2.3419-4.0502-.9739-.9797-2.7693-.3437-2.7763,1.7599.3461.4696.5122,1.0013.8526,1.4722.417.6221.7539,1.2719,1.1584,1.894.6222.7012.9589,1.5113,1.3496,2.4577-.2268.5993-.1845.8822-.5397,1.1744-1.2889.236-2.1769-.1341-2.7577-.6359-.5775-.896-.73-1.8549-1.2398-2.3213-1.4735-.7448-2.5676.7619-1.3542,2.9572.7436,1.3073,1.9385,2.5916,2.9307,3.467,1.4884.5797,2.1861,1.4083,4.2326,1.0324.4434.1878.5751.4972.7951.7287-.0538.7127.1638,1.5021.3597,2.0119.5455.6566,1.1768,1.0324,1.7199,1.6935,1.9947,1.2032,3.6537-.1341,3.9128-2.099-.3748-2.2218-2.8438-5.7415-2.4784-6.9388.7391-1.0884,1.4666-1.611,2.5379-1.8769,2.5471.3656,5.1835,2.334,6.02,2.5002.8763-.1479,1.3199.157,2.0255-.1272.5398-.9797.8009-1.7679.7837-2.5252-.5568-.7402-.9715-1.4632-1.8377-2.0784-2.2434-2.0933-4.5212-4.142-3.6195-4.7997.7539-.1604,1.4035-.2785,2.1596-.4355.1881-.0468.4321-.2783.6223-.3299.4972-.2668,1.0518-.3918,1.5525-.6588.518-.2131.9499-.5522,1.4712-.7663.2086-.1479.4651-.2787.6794-.4264.4732-.1008.9442-.2097,1.4207-.314.8754-.6313,1.1973-1.1881,1.3464-1.7381.2555-.5225.1845-.9887-.2269-1.5594Z" fill="#007046" fill-rule="evenodd" stroke-width="0"></path><path d="M184.5201,372.5769h-4.0379v-14.4595c-.9704.5179-2.2422,1.0405-3.8244,1.5607-1.5847.5201-3.0008.9142-4.2588,1.1686v-2.1862c2.2558-.6003,4.2335-1.3268,5.9316-2.1724,1.6866-.8523,2.8873-1.6774,3.5977-2.4725h2.5918v18.5613Z" fill="#fff" stroke-width="0"></path><path d="M198.0308,368.3057l3.8841-.204c.3323,1.0243.959,1.7691,1.8871,2.2318.9281.4654,2.1117.6921,3.5668.6921,1.25,0,2.3339-.1559,3.271-.4835.927-.3092,1.6992-.7356,2.295-1.2741.6063-.5339,1.1069-1.2534,1.5113-2.1632.3965-.9075.6017-1.8308.6017-2.7727,0-.1009-.0092-.2543-.022-.4514-.8099.7172-1.9122,1.3062-3.3111,1.7529-1.3967.4538-2.9172.6761-4.5417.6761-2.7259,0-5.0345-.5523-6.9171-1.6683-1.8849-1.1067-2.8265-2.5642-2.8265-4.3814,0-1.8745.9795-3.3891,2.9444-4.5303,1.9685-1.1457,4.4377-1.7141,7.4098-1.7141,2.1333,0,4.0846.3208,5.8663.9693,1.7679.6509,3.1143,1.5674,4.0376,2.7682.919,1.2008,1.3761,2.9309,1.3761,5.2041,0,2.3556-.4493,4.2416-1.3635,5.644-.9189,1.3978-2.2789,2.4612-4.0732,3.192-1.8103.7333-3.9196,1.0977-6.3452,1.0977-2.5745,0-4.6736-.3965-6.3063-1.2007-1.6338-.8066-2.6135-1.9342-2.9446-3.3845h0ZM214.5733,360.1478c0-1.3016-.6094-2.3444-1.8469-3.1005-1.2374-.7676-2.7177-1.155-4.4559-1.155-1.7908,0-3.3583.4126-4.6897,1.2352-1.3336.825-2.005,1.8951-2.005,3.2013,0,1.1801.6405,2.1404,1.9031,2.8758,1.2626.7356,2.822,1.1023,4.6736,1.1023,1.8778,0,3.411-.3667,4.6129-1.1023,1.2145-.7354,1.8079-1.7576,1.8079-3.0568Z" fill="#fff" stroke-width="0"></path><path d="M225.5486,367.7305l4.2416-.195c.3185,1.162,1.0461,2.0258,2.1861,2.6171,1.155.5844,2.531.873,4.1512.873,1.9431,0,3.5896-.4103,4.9313-1.2306,1.3509-.8249,2.0258-1.9272,2.0258-3.286,0-1.2923-.6452-2.3099-1.9446-3.0614-1.2922-.7471-2.9868-1.1275-5.0859-1.1275-1.3028,0-2.4737.1696-3.5232.5065-1.0496.3299-1.8686.7584-2.4644,1.2878l-3.795-.2727,3.1887-9.4961h16.3628v2.1678h-13.1316l-1.7761,4.9726c1.973-.7814,4.0537-1.1687,6.2193-1.1687,2.8735,0,5.2957.5592,7.2732,1.6796,1.9775,1.1206,2.9631,2.5598,2.9631,4.3128,0,1.6774-.872,3.1234-2.601,4.3446-2.1127,1.4873-4.9966,2.2366-8.6424,2.2366-2.9962,0-5.439-.4651-7.3375-1.4093-1.8916-.9464-2.971-2.1929-3.2414-3.7511Z" fill="#fff" stroke-width="0"></path><path d="M253.943,356.5134v-2.1792h21.3031v1.7621c-2.0909,1.2535-4.174,2.9194-6.2354,4.9956-2.0496,2.0737-3.6434,4.2117-4.7594,6.4048-.8099,1.549-1.3325,3.2403-1.5501,5.0802h-4.1558c.0481-1.4527.5535-3.2126,1.5285-5.2751.9727-2.0553,2.3603-4.0443,4.1774-5.9532,1.8242-1.9135,3.7594-3.5269,5.8147-4.8352h-16.123Z" fill="#fff" stroke-width="0"></path><path d="M262.6668,338.1215c1.5457-151.5196-44.9667-263.0459-44.4569-261.9122v261.9122h44.4569Z" fill="#fff" fill-rule="evenodd" stroke-width="0"></path><polygon points="209.8208 125.4829 168.3956 143.7057 168.3956 338.1215 209.8208 338.1215 209.8208 125.4829" fill="#fff" fill-rule="evenodd" stroke-width="0"></polygon><path d="M272.3967,338.1215c1.5409-151.5196-44.9713-263.0459-44.4523-261.9122v11.5371c11.398,32.1084,41.3724,128.2432,40.1315,250.3751h4.3208Z" fill="#fff" fill-rule="evenodd" stroke-width="0"></path><path d="M282.1218,338.1215c1.5387-151.5196-44.9655-263.0459-44.4602-261.9122v11.5371c11.4107,32.1084,41.3861,128.2432,40.1396,250.3751h4.3206Z" fill="#fff" fill-rule="evenodd" stroke-width="0"></path><path d="M119.6239,284.5801c7.3729-3.813,13.2828-6.1642,19.4024-6.6868,7.405-.6278,14.8491,1.4117,25.1495,6.7946,5.6176,2.0004,9.7469,2.7016,13.693,2.1838,4.024-.5179,8.111-2.3353,13.5497-5.337l.0701-.039c11.1711-5.7219,19.5878-2.6604,29.2077.8363,4.7653,1.7279,9.8478,3.5748,15.6281,4.3517,9.3462-.0801,14.7874-2.5138,19.5606-4.6518,7.9837-3.577,14.321-6.4162,30.8806,1.1228l-.0183-.0092c8.3721,3.7651,15.8275,4.5992,22.7526,3.5772,6.973-1.0335,13.4901-3.9552,19.8788-7.7042v5.88c-6.1,3.3388-12.3822,5.8916-19.134,6.8929-7.8336,1.1596-16.2275.2315-25.5794-3.9757l-.0205-.0092c-14.4571-6.5812-19.8572-4.159-26.678-1.1067-5.2612,2.358-11.2547,5.0435-21.7121,5.1147l-.3221-.0322c-6.4815-.8271-11.9045-2.8003-16.9778-4.6426-8.4982-3.0913-15.933-5.7929-25.1405-1.0746l.0712-.039c-5.9683,3.2928-10.5502,5.291-15.3763,5.9144-4.8729.637-9.7469-.1628-16.2238-2.4818l-.3175-.1398c-9.4445-4.9474-16.1026-6.8378-22.5188-6.2901-5.9545.5041-11.9332,3.1049-19.8252,7.3212v-5.7699Z" fill="#fff" stroke-width="0"></path><path d="M119.6239,295.5199c8.3618-4.4502,14.7986-7.1999,21.4844-7.7752,7.4003-.6256,14.8443,1.4163,25.1413,6.7966,5.6269,1.9982,9.7551,2.6948,13.701,2.1861,4.024-.5224,8.1108-2.335,13.5497-5.3415l.0747-.0344c11.1643-5.7265,19.5787-2.6696,29.2043.8319,4.7596,1.7301,9.842,3.5748,15.6317,4.3515,9.3425-.0779,14.7826-2.5114,19.5558-4.6516,7.9837-3.5748,14.321-6.4095,30.8852,1.1228l-.0229-.007c8.3676,3.7627,15.8241,4.6037,22.7583,3.5748,6.2135-.9189,12.0637-3.3455,17.7913-6.5102v5.7883c-5.448,2.8003-11.0623,4.9086-17.0558,5.7908-7.83,1.1596-16.2239.2315-25.5756-3.9712l-.0218-.0115c-14.4514-6.5767-19.8606-4.1591-26.6767-1.1068-5.2614,2.3557-11.2549,5.0437-21.7123,5.1171l-.3312-.0344c-6.4815-.8318-11.9032-2.8004-16.9686-4.6427-8.5028-3.089-15.9331-5.7953-25.1393-1.077l.0699-.039c-5.9637,3.293-10.5502,5.2934-15.3762,5.919-4.8695.6324-9.7515-.1649-16.2193-2.4816l-.3221-.1444c-9.4433-4.9475-16.1025-6.838-22.5142-6.2903-6.4725.5499-12.9654,3.5724-21.9116,8.4466v-5.8067Z" fill="#fff" stroke-width="0"></path><path d="M384.0548,83.1607s.6799-1.1924,1.077-1.252c.4014-.0591.9608.2008,1.2724.5399.2977.3473.0292,1.6691-.1128,1.9621-.1423.2969-4.5206,4.0858-4.7898,4.2051-.1775.0829-.7472.5507-1.1397.6053-.3947.0592-.3993.2247-.532.3042-.4032.2367-1.7192,1.4341-1.6247,1.5409.1011.1118,1.2037,1.3365,1.2037,1.3365,0,0,.459.1078.7151.219.2594.1112,1.0135.8768,1.0135.8768,0,0,.333.1013.5106.1452.1719.0402.3174.0877.5211.2629,0,0,3.5523,3.7912,3.5491,4.0314.0025.243-.2158.6078-.2158.6078,0,0-.7532.7154-.951.6578-.0944-.0278-.7782-.4218-1.6699-.7205-.0645-.028-.447-.1251-.5117-.1491-.8938-.3073-1.6356-.4228-1.7598-.4921-.2609-.1422-1.814-1.8666-1.814-1.8666,0,0-.752-.1636-1.0463-.3074-.2905-.1461-.8162-.6624-1.0838-.8175-.2755-.1519-.8953-.2461-1.0802-.36-.1848-.114-.5267-.4808-.7344-.5176-.2225-.0402-.2376.098-.4037.059-.1597-.034-.2473-.2284-.3813-.2321-.1339-.0036-1.9223,1.6906-2.1959,1.765-.2701.0718-.6048-.103-.8091-.0472-.1142.0267-.9974.6388-1.146.7093-.6147.2663-.5676-.0379-.7154.0058-.1508.0704-.803.4018-1.0103.439-.2059.03-.2184.0685-.3605.0218-.1386-.0428-1.8013.4943-1.8013.4943,0,0-.8122.4844-1.0499.4603-.2344-.0243-.5103-.2878-.6998-.3154-.1963-.0306-1.07.2329-1.07.2329l-2.1085-.0619s-.8201.3564-1.0259.3818c-.2092.0201-.707-.555-.9006-.6393-.1949-.0874-.3636.0033-.5356-.0312-.1778-.0406-.4312-.1656-.6696-.2463-.2271-.0791-.6013.3206-.8702.3476-.2572.02-.5245-.1455-.698-.3382-.1736-.1909-.3371-.6269-.3306-.8699.0065-.2398,1.2394-1.3176,1.4983-1.4027.2467-.0844,1.6068-.3649,1.9171-.2745.3162.0923.7571.566.7571.566,0,0,.3564-.2052.6479-.3009.2777-.0968,4.5161-.5999,4.5161-.5999,0,0,.5224-.579.7342-.6162.2076-.0424.6447.1964.6447.1964,0,0,.9106-.6114,1.1807-.5565.267.0502.4739.3257.6619.4054.2006.0839,1.1699-.4077,1.1937-.6083.0262-.1993-.8304-1.0376-.8844-1.24-.0508-.1963-.1491-.6266-.2154-.7148-.0631-.0895-.3843-.3291-.4386-.5232-.0579-.1878.0664-.7116.0342-.9229-.0367-.2051-.7212-.794-.7309-1.0687-.013-.276.388-.7791.7352-1.2792.3323-.5044.2887-1.6379.719-1.9139.4396-.2712.8524-.1128,1.0436-.0164.1999.1022,2.7516,2.9201,2.7516,2.9201,0,0,.6247-.0828.7186-.0413.2029.0847,1.1173,1.2328,1.1173,1.2328.4984.1746.9805.1964,1.4469.0301,0,0,2.1282-1.6837,3.3162-2.4141.2788-.1797.496-.1608.6294-.2138.1922-.074,2.5225-2.272,2.5225-2.272l.9679-.8613.5008-.4576Z" fill="#007046" stroke-width="0"></path><path d="M372.1891,100.4974s.3841.4592.3776.6986c-.0065.2354.0113.4668.0113.4668l.9889,1.1072s.2064.0841.5472.2367c.3182.1398.9677.9156,1.1837,1.5279.1767.4965.1176,1.2444.29,2.9128.1758,1.6689.5199,2.7083.3181,3.2209-.1985.5133-1.4201,1.2595-1.7683,1.3377-.3414.0772-1.3216-.0405-1.8824.096-.5663.1279-.7834.5317-1.3177.7046-.5328.1643-1.0507-.0583-1.3329-.2149-.2869-.1596-.7896-.766-.9947-1.1068-.196-.3361-.158-1.0977.0956-1.535.2561-.4344,1.1772-1.0137,1.3857-1.3435.1557-.2446.0249-.4538.1054-.6694.1409-.3829.4763-.8747.5429-1.3394.0972-.8347.3978-2.1464.3333-2.6054-.0595-.4681-.0975-.1637-.2325-.6814-.1407-.5181.0079-2.483.2522-2.6998.2386-.216.3331-.277.5923-.2837.2649-.006.5043.1701.5043.1701Z" fill="#007046" stroke-width="0"></path><path d="M400.67,326.2777l-15.4389-2.5607,1.0632-1.7974,11.0539,2.1307c.8853.1706,1.6999.3543,2.439.5555-.5657-.6001-1.1194-1.2275-1.6507-1.8909l-7.1165-8.7849,1.0039-1.698,9.6515,12.3411-1.0055,1.7046Z" fill="#007046" stroke-width="0"></path><path d="M400.8359,326.6615l-.2324-.0377-15.9338-2.6473,1.4456-2.4442,11.297,2.1753c.4583.0864.9155.1818,1.3493.283-.3042-.3456-.6074-.7008-.8954-1.0561l-7.2684-8.9766,1.3831-2.3437,10.1078,12.9332-1.2529,2.1142ZM385.7852,323.453l14.7034,2.4411.3785-.6364-1.1606-.3144c-.7507-.1985-1.5691-.3848-2.4252-.5497l-10.8108-2.0864-.6854,1.1458ZM391.4446,313.8985l6.9669,8.5902c.5193.6508,1.065,1.2832,1.6364,1.882l.8261.864.3825-.6314-9.1925-11.7528-.6195,1.0479Z" fill="#007046" stroke-width="0"></path><path d="M30.2319,240.7437l1.7122-.1313.4639,6.1628-5.3953.4061c-.8266-.8915-1.4641-1.8209-1.9203-2.7987-.4559-.9779-.7253-1.995-.8027-3.0564-.107-1.4253.0988-2.7487.6265-3.9606.524-1.2154,1.3413-2.1627,2.4554-2.8433,1.1114-.685,2.3808-1.0787,3.8082-1.1834,1.4222-.1079,2.7658.0858,4.0371.5857,1.2687.5022,2.2448,1.287,2.927,2.3546.6786,1.0653,1.0662,2.3273,1.1743,3.7708.0799,1.0518-.0145,2.014-.2899,2.8883-.2815.8817-.7021,1.58-1.2765,2.1122-.5751.5277-1.3399.9524-2.2991,1.2786l-.6059-1.6994c.7229-.2758,1.2909-.5919,1.6857-.9474.3963-.3571.7034-.8454.9178-1.4634.2031-.6263.2785-1.3009.2244-2.0325-.0656-.8804-.2592-1.6316-.5742-2.2535-.3146-.6204-.7061-1.1109-1.1715-1.4726-.4642-.3619-.9717-.6341-1.5112-.8132-.9253-.3034-1.914-.4129-2.9659-.3333-1.2992.0961-2.364.4027-3.204.9124-.8387.5138-1.4371,1.2122-1.8001,2.0994-.3585.8799-.5012,1.8044-.4333,2.7656.0634.8304.286,1.6347.6671,2.4018.3801.7707.7704,1.3475,1.1641,1.7302l2.7069-.2006-.3205-4.2787Z" fill="#007046" stroke-width="0"></path><path d="M35.2366,246.7698l-.8339-2.3491.3167-.1199c.6808-.2521,1.2116-.5502,1.5822-.8788.349-.3094.622-.7543.8125-1.3178.1947-.5691.2648-1.209.2119-1.8948-.0573-.8243-.2418-1.5378-.5334-2.119-.2899-.5725-.6567-1.0293-1.0733-1.3578-.4348-.3289-.9066-.585-1.4072-.7562-.8776-.2825-1.8298-.393-2.8376-.3143-1.2332.0899-2.2578.3779-3.0455.8617-.7801.4773-1.327,1.1072-1.6601,1.9319-.3347.8301-.4699,1.7084-.4031,2.607.0611.7868.2677,1.5547.6297,2.2804.3234.6582.6559,1.1643.9845,1.5165l2.1981-.1617-.322-4.2787,2.4081-.1799.523,6.855-5.9156.4477-.1094-.1275c-.8526-.9115-1.5178-1.8805-1.9798-2.883-.4778-1.0127-.7631-2.0793-.8401-3.1778-.1103-1.4781.1064-2.8684.6514-4.1242.5499-1.2735,1.4235-2.2888,2.5923-3.0038,1.1548-.7089,2.4926-1.1185,3.9699-1.2393,1.4628-.1035,2.8763.0998,4.1872.6135,1.3358.5263,2.3731,1.364,3.091,2.4863.7132,1.1155,1.1246,2.4391,1.2325,3.9407.0843,1.0906-.0185,2.1084-.3075,3.0226-.2989.9259-.7528,1.6856-1.3741,2.2516-.6017.5658-1.4237,1.0209-2.4248,1.3568l-.3233.1121ZM35.2862,244.8273l.376,1.0546c.7612-.2891,1.3836-.6531,1.8502-1.0895.5259-.4901.9208-1.1411,1.1798-1.9551.2625-.8315.3596-1.762.2785-2.7599-.0987-1.383-.4765-2.6027-1.1192-3.6136-.6444-.9967-1.5705-1.738-2.7588-2.21-1.2238-.4803-2.526-.6729-3.8822-.5726-1.3649.1036-2.5994.4892-3.659,1.1345-1.0417.6424-1.8246,1.5462-2.3119,2.6888-.5006,1.1567-.7045,2.4308-.6,3.7983.0727,1.0092.3309,1.9981.767,2.9302.4202.8959,1.0066,1.7622,1.7506,2.5886l4.8806-.3673-.4181-5.4659-1.0086.0742.3161,4.2801-3.2131.2421-.1146-.111c-.4239-.4127-.8262-1.0083-1.2318-1.828-.3982-.8029-.6316-1.6521-.6977-2.528-.074-1.0133.0763-1.9977.4563-2.924.387-.9539,1.0382-1.7151,1.9405-2.2654.8833-.5336,2.0142-.8647,3.3532-.961,1.0992-.0862,2.1439.0335,3.1091.3504.5778.1915,1.1244.4806,1.6092.8653.5094.3865.9349.923,1.2745,1.5928.3385.6638.5433,1.4628.6081,2.3788.0589.7841-.0231,1.5105-.249,2.1772-.2269.6748-.5657,1.2192-1.0068,1.613-.3732.3244-.8713.6243-1.4788.8822Z" fill="#007046" stroke-width="0"></path><path d="M41.7704,260.1961l.3347,1.8959-8.2948,1.5c-1.4391.2589-2.6117.2995-3.5218.1272-.9045-.1749-1.7015-.6384-2.394-1.3959-.6813-.7539-1.1518-1.8265-1.4022-3.2105-.2407-1.3408-.2065-2.4819.1066-3.4245.3103-.936.8704-1.6669,1.6828-2.1962.8094-.5211,1.9805-.9179,3.496-1.1962l8.2961-1.4943.3442,1.9031-8.286,1.4932c-1.2464.2231-2.144.5044-2.6916.8419-.5533.34-.9324.822-1.1554,1.4423-.2186.6205-.2517,1.3448-.1025,2.1556.2493,1.398.7459,2.3389,1.486,2.8203.7418.4766,2.0094.5531,3.8147.2305l8.2875-1.4923Z" fill="#007046" stroke-width="0"></path><path d="M42.5153,262.3731l-8.6418,1.5627c-1.478.268-2.7049.3074-3.6511.1297-.9797-.1881-1.8472-.6982-2.582-1.5039-.7282-.8056-1.2276-1.9434-1.4879-3.3882-.2525-1.3913-.2157-2.6005.1116-3.5941.3374-1.0158.9482-1.812,1.8237-2.379.8462-.5419,2.0603-.9629,3.6332-1.2452l8.6339-1.5561.4646,2.5839-8.6268,1.5545c-1.1938.2199-2.0631.4856-2.5715.8001-.4868.2972-.8115.7098-1.006,1.2557-.196.5651-.2334,1.2321-.0934,1.9835.2295,1.2941.6838,2.1652,1.3368,2.5813.6642.4332,1.8608.4943,3.5623.1864l8.6226-1.5535.4717,2.5822ZM31.0118,252.8143c-1.075.2506-1.926.5744-2.5447.9745-.7467.4833-1.2522,1.1387-1.5376,2.0106-.2885.8773-.3194,1.9734-.0891,3.2505.2304,1.3168.6804,2.3407,1.3174,3.0374.6289.7002,1.3698,1.1325,2.1948,1.2893.8672.1654,2.0079.1188,3.3948-.1327l7.9524-1.4324-.2169-1.213-7.9378,1.4293c-1.9127.3477-3.2421.2548-4.065-.2791-.8227-.5343-1.3757-1.5601-1.6457-3.0468-.1547-.8735-.1108-1.6634.1235-2.3349.2401-.6976.6768-1.242,1.2996-1.6245.5915-.3662,1.513-.6575,2.8128-.8886l7.9423-1.43-.2208-1.2165-7.9464,1.4313c-.2932.0498-.5693.1142-.8334.1758Z" fill="#007046" stroke-width="0"></path><path d="M28.8235,269.174l15.5543,1.5383.5483,2.0039-12.4816,9.6274-.5877-2.1205,3.8128-2.8134-1.6125-5.886-4.6868-.3716-.5468-1.9782ZM35.72,271.6477l1.309,4.7681,3.4927-2.5384c1.0552-.7741,1.9412-1.3742,2.6379-1.8016-.9499.0699-1.9105.0611-2.8882-.0205l-4.5513-.4076Z" fill="#007046" stroke-width="0"></path><path d="M32.246,282.9319l-.7903-2.8523,3.8107-2.8089-1.4878-5.417-4.6857-.3734-.7369-2.7026,16.2927,1.6128.6765,2.4608-13.0791,10.0806ZM32.2631,280.3568l.3791,1.3894,11.8904-9.1619-.225-.7943-.9612.5869c-.6901.4165-1.5664,1.019-2.6173,1.7799l-3.9018,2.8392-1.5801-5.7405,5.0558.4555c.9492.0789,1.9008.087,2.8336.0163l1.1374-.0813-.1697-.6096-14.807-1.466.3413,1.2543,4.6914.3721,1.7439,6.3515-3.8108,2.8086ZM36.1923,272.0382l1.0378,3.8026,3.087-2.2419c.5866-.4275,1.112-.8011,1.5882-1.1235-.5514,0-1.1111-.0226-1.6648-.073l-4.0482-.3642Z" fill="#007046" stroke-width="0"></path><path d="M33.8269,286.5803l13.7411-4.8952.6673,1.8645-8.224,11.0622,10.7891-3.8411.6244,1.7397-13.7405,4.8963-.6683-1.8687,8.2337-11.0597-10.8025,3.8427-.6202-1.7406Z" fill="#007046" stroke-width="0"></path><path d="M37.4735,297.8494l-.852-2.3678.1187-.1487,7.5425-10.1406-10.046,3.5725-.8544-2.398.3274-.113,14.0714-5.0132.8434,2.3698-.1169.1483-7.5294,10.1391,10.0363-3.575.8554,2.4024-14.3965,5.1242ZM37.4067,295.5987l.4914,1.3586,13.0801-4.6552-.3886-1.0886-11.5409,4.1098,8.7921-11.8303-.4824-1.3606-13.0842,4.6577.3872,1.0827,11.5506-4.1074-8.8051,11.8334Z" fill="#007046" stroke-width="0"></path><path d="M48.0237,307.1023l1.559-.7093,2.5657,5.6268-4.9296,2.2332c-1.0774-.5495-2.0003-1.2044-2.7659-1.9662-.7676-.7566-1.3681-1.6243-1.8025-2.5891-.5949-1.3037-.8515-2.6144-.7804-3.9388.0788-1.3171.5177-2.4898,1.3226-3.5104.8108-1.0223,1.8714-1.8328,3.1749-2.4229,1.2919-.5878,2.6238-.8722,3.9888-.8366,1.3685.0304,2.5492.432,3.5568,1.2001,1.0037.7646,1.8025,1.8141,2.4059,3.1343.4351.9599.6751,1.8978.7187,2.8141.0395.9188-.1127,1.7245-.4702,2.4176-.3539.695-.9258,1.3564-1.7173,1.9944l-1.1564-1.3876c.5814-.5075,1.0053-.9952,1.2538-1.4668.2551-.4759.3748-1.0398.3569-1.694-.0177-.6545-.1769-1.3174-.4808-1.9845-.3672-.8057-.8064-1.4429-1.3193-1.9145-.5102-.4814-1.0434-.8043-1.6085-.9818-.5565-.1798-1.1224-.2621-1.6948-.2407-.9734.034-1.9401.2687-2.9005.7021-1.1863.5415-2.0858,1.1953-2.6955,1.9637-.6071.7725-.9303,1.6319-.9686,2.5858-.0281.9559.1547,1.872.5475,2.7483.3526.7646.836,1.4391,1.4574,2.0291.617.5898,1.1869.9992,1.6866,1.2242l2.4693-1.1269-1.7736-3.9036Z" fill="#007046" stroke-width="0"></path><path d="M47.2108,314.6453l-.1481-.0771c-1.1079-.5672-2.073-1.2458-2.8528-2.0363-.7949-.7826-1.427-1.6874-1.8791-2.6876-.6144-1.3484-.8924-2.7307-.8094-4.1023.0803-1.3845.5467-2.6358,1.3968-3.7115.8495-1.0661,1.9577-1.9156,3.3027-2.5245,1.3378-.6076,2.73-.8966,4.1424-.8677,1.4375.0372,2.7008.4638,3.768,1.2719,1.0401.7957,1.8879,1.8968,2.5074,3.2669.4535.9998.7067,1.9946.7494,2.9462.0382.9727-.1289,1.8447-.5107,2.5923-.376.7321-.9896,1.4434-1.8066,2.104l-.2683.2156-1.593-1.9135.2581-.221c.5427-.4756.9456-.9414,1.1762-1.3721.222-.4146.3264-.926.3137-1.5186-.0199-.6047-.1699-1.2284-.4544-1.8511-.3423-.7579-.7613-1.3678-1.2308-1.805-.4791-.4397-.9707-.7416-1.4834-.904-.5178-.1656-1.054-.2379-1.5742-.2239-.9228.0357-1.8604.2637-2.7715.678-1.1257.512-1.9918,1.1398-2.5576,1.8582-.5693.7113-.8671,1.5099-.8956,2.3862-.0336.8945.1434,1.7658.5147,2.5891.3273.7153.7875,1.3617,1.3778,1.9175.5263.5099,1.0138.8739,1.4504,1.0908l2.0038-.9096-1.7695-3.9062,2.1858-.9962,2.8611,6.2564-5.4032,2.4553ZM48.2172,299.555c-.5738.1337-1.1488.3352-1.7044.5858-1.2483.5635-2.2691,1.3481-3.0465,2.3224-.7562.9603-1.1801,2.079-1.2493,3.3189-.0658,1.2557.1802,2.5275.7452,3.7755.4194.9193,1.006,1.7595,1.7379,2.4831.7002.6977,1.5503,1.3096,2.5321,1.8294l4.4535-2.0288-2.277-4.9869-.9189.4212,1.7736,3.9033-2.9355,1.3337-.141-.0653c-.5434-.2362-1.1406-.6697-1.7909-1.2855-.646-.6228-1.1672-1.3343-1.5244-2.1377-.4193-.919-.6163-1.8946-.5812-2.9013.0382-1.0257.3881-1.9678,1.0459-2.792.6349-.811,1.5896-1.5036,2.8161-2.0636,1.0002-.452,2.022-.6993,3.0375-.7384.6102-.0168,1.2168.0698,1.8119.2573.6051.1914,1.1978.5463,1.7474,1.0583.538.5009,1.0041,1.181,1.3888,2.0225.3185.7098.4944,1.4253.5187,2.1271.0132.7135-.119,1.3356-.3991,1.8616-.2326.4403-.5956.8878-1.0809,1.3408l.7162.8592c.618-.5348,1.0703-1.0919,1.3639-1.658.3213-.6385.4737-1.3906.4271-2.2404-.0369-.8689-.265-1.7745-.681-2.6928-.5755-1.2593-1.3487-2.2705-2.3023-2.9976-.9384-.7215-2.069-1.0981-3.3527-1.1266-.721-.0189-1.4378.0532-2.1306.2147Z" fill="#007046" stroke-width="0"></path><path d="M48.119,320.3097l12.6146-7.3291,2.5258,4.3452c.5682.9794.9434,1.76,1.1177,2.3504.2538.8199.3119,1.6074.1722,2.3748-.1765.9908-.6035,1.9048-1.2855,2.7437-.6828.8407-1.5847,1.5837-2.7126,2.2374-.9587.5587-1.8679.9406-2.7425,1.1445-.8661.2066-1.6461.2764-2.3353.2044-.6913-.0625-1.2888-.228-1.8109-.483-.5192-.2509-1.0197-.6304-1.5134-1.1389-.4758-.5032-.9408-1.1327-1.3871-1.8971l-2.643-4.5522ZM50.5778,321.1146l1.5627,2.6908c.486.8364.9411,1.4422,1.3706,1.826.4285.3797.8681.631,1.3083.7516.6292.1629,1.3368.1632,2.1351-.0043.794-.1685,1.673-.5295,2.6238-1.0817,1.3165-.7647,2.2076-1.5727,2.6691-2.4186.4532-.8408.624-1.6461.5005-2.4061-.0853-.5437-.4221-1.312-.9951-2.3115l-1.5403-2.6455-9.6347,5.5993Z" fill="#007046" stroke-width="0"></path><path d="M57.8585,328.5278c-.8918.2079-1.7099.2731-2.4204.2013-.7233-.0688-1.3736-.2434-1.9306-.5178-.55-.2701-1.0921-.6719-1.6014-1.2071-.5032-.5228-.9884-1.1847-1.4454-1.9695l-2.8225-4.8503,13.2259-7.683,2.694,4.6475c.5885,1.0192.9684,1.8081,1.154,2.4279.2717.8631.329,1.7194.184,2.5357-.1863,1.0467-.6449,2.0233-1.3617,2.9026-.7031.8667-1.6498,1.6478-2.8098,2.3209-.9779.5679-1.9328.9652-2.827,1.1827l-.039.0091ZM48.5926,320.4367l2.4687,4.2513c.4296.7329.8826,1.3486,1.3444,1.8321.4555.4756.9288.831,1.4134,1.064.4767.2383,1.0488.3865,1.6945.4506.6321.064,1.3672.0044,2.1864-.1866l.0782.3355-.0479-.3426c.8303-.2026,1.7233-.5764,2.6521-1.1112,1.0762-.6263,1.9537-1.3558,2.6088-2.158.6409-.7848,1.052-1.6556,1.2167-2.5853.1268-.7048.0706-1.445-.1604-2.206-.172-.5602-.5375-1.3265-1.0919-2.2799l-2.3485-4.0437-12.0145,6.9798ZM57.1562,326.6855h0l-.1276.0297c-.8484.184-1.6241.181-2.2965.0021-.4918-.1319-.983-.4122-1.4571-.8302-.4624-.4069-.9253-1.0338-1.4332-1.9049l-1.7476-2.9967,10.2461-5.9472,1.7123,2.9501c.601,1.042.9436,1.8352,1.0411,2.431.1315.8331-.0556,1.7191-.5469,2.6267-.4817.8963-1.4265,1.7567-2.7961,2.5507-.9256.5419-1.8001.9035-2.5946,1.0887ZM51.049,321.2375l1.3958,2.3944c.4597.7964.9012,1.3841,1.2954,1.7347.3908.3486.7792.5764,1.1702.6769.568.1508,1.2304.1482,1.978-.0079l.1114-.0213c.7264-.1693,1.5369-.516,2.4001-1.0173,1.2591-.7269,2.1055-1.4984,2.5366-2.2836.4208-.7702.5757-1.5047.4712-2.1832-.0799-.5004-.4056-1.2409-.9581-2.1916l-1.3629-2.3516-9.0377,5.2503Z" fill="#007046" stroke-width="0"></path><path d="M62.8878,331.1977c1.9625-1.4162,3.8845-1.9943,5.7534-1.7346,1.8692.2533,3.409,1.2161,4.6095,2.8842.7833,1.0948,1.232,2.2704,1.3442,3.5198.1036,1.2529-.1417,2.4479-.7453,3.5825-.601,1.134-1.4948,2.1216-2.6831,2.976-1.2019.8622-2.449,1.3916-3.7458,1.5897-1.2964.1996-2.5113.0265-3.6399-.5127-1.1242-.539-2.0583-1.3198-2.7913-2.3495-.8021-1.1162-1.2539-2.3049-1.3464-3.5698-.0939-1.2627.1689-2.4618.7777-3.581.606-1.1257,1.4235-2.0589,2.4672-2.8046ZM64.021,332.8326c-1.4226,1.0253-2.2783,2.2155-2.5399,3.5705-.2737,1.3622.0109,2.6222.8449,3.7754.8437,1.183,1.9544,1.8552,3.3362,2.0218,1.378.1627,2.8245-.3002,4.3504-1.4001.9666-.6954,1.6843-1.4539,2.1724-2.3025.4837-.8419.7001-1.7206.6455-2.6315-.0515-.9097-.3615-1.7608-.924-2.5379-.7969-1.1127-1.8632-1.7921-3.2026-2.0391-1.3357-.2582-2.8998.2594-4.683,1.5435Z" fill="#007046" stroke-width="0"></path><path d="M68.0874,344.2413c-.2091.0487-.4091.091-.6137.1201-1.3624.2056-2.6545.0231-3.8428-.5423-1.1687-.559-2.1604-1.3907-2.9255-2.465-.8371-1.1679-1.3092-2.4237-1.4066-3.7486-.099-1.3246.174-2.5982.8132-3.7715.6302-1.1593,1.4968-2.1453,2.5706-2.9194,2.028-1.4634,4.0604-2.0657,6.0076-1.7998,1.9616.2685,3.5892,1.292,4.8357,3.0337.8205,1.1347,1.299,2.38,1.4119,3.6922.1133,1.3134-.1493,2.5846-.7828,3.7703-.6217,1.1755-1.561,2.2183-2.7842,3.0993-1.0551.7559-2.1533,1.2675-3.2834,1.5309ZM66.3343,329.9196c-1.0574.2465-2.1496.7708-3.2461,1.5592-.9943.7141-1.783,1.6146-2.3648,2.692-.5731,1.0556-.8144,2.1961-.7333,3.3853.09,1.1934.5168,2.3343,1.2838,3.3915.6984.9794,1.5972,1.7287,2.6617,2.2417,1.055.5058,2.2163.6655,3.4285.4855,1.2494-.1915,2.4514-.7044,3.6013-1.5328,1.1316-.8151,2.0033-1.7795,2.5758-2.8579.566-1.0675.8028-2.2069.7028-3.3841-.1059-1.1837-.5342-2.312-1.2763-3.3471-1.14-1.5796-2.6065-2.5105-4.3768-2.7471-.7355-.1011-1.4999-.0625-2.2566.1139ZM67.4123,342.4416h0c-.6071.1415-1.2101.1704-1.7935.1041-1.47-.1764-2.6747-.9033-3.5774-2.1616-.8883-1.2353-1.1966-2.597-.9071-4.0488.2914-1.4369,1.1855-2.7126,2.687-3.787,1.8551-1.3375,3.5124-1.8753,4.9457-1.606,1.424.2684,2.5708,1.004,3.424,2.1804.5969.8331.927,1.7501.9889,2.7251.0568.9728-.1747,1.9256-.6936,2.8262-.5104.8845-1.271,1.6944-2.2739,2.4121-.9501.6869-1.8912,1.1436-2.8002,1.3555ZM67.095,331.6858c-.8626.2011-1.8303.6822-2.8695,1.4269-1.3448.9717-2.1536,2.1005-2.4045,3.3627-.251,1.2685.0023,2.4144.7887,3.5022.7904,1.1051,1.8038,1.7204,3.0898,1.8769.5054.0585,1.0259.0259,1.5533-.097h0c.8148-.1899,1.6767-.605,2.5601-1.2368.916-.6623,1.6118-1.4016,2.0676-2.1924.4503-.7818.6534-1.5994.6016-2.4388-.0494-.8431-.3414-1.6356-.8589-2.3571-.7536-1.0465-1.7237-1.6672-2.9832-1.9065-.4776-.0847-.993-.0687-1.545.06Z" fill="#007046" stroke-width="0"></path><path d="M68.6851,350.9581l11.0932-9.4738,1.2867,1.5053-3.7342,13.2623,8.7053-7.4394,1.2057,1.4081-11.0932,9.4738-1.2868-1.5056,3.7463-13.2695-8.7184,7.4425-1.2047-1.4037Z" fill="#007046" stroke-width="0"></path><path d="M76.1086,360.1921l-1.6296-1.9187,3.4786-12.3418-8.1044,6.9227-1.6572-1.9386,11.6193-9.9239,1.6369,1.9123-3.4747,12.3381,8.1009-6.9187,1.6571,1.9383-11.6269,9.9303ZM75.2494,358.1032l.9386,1.1028,10.5612-9.0236-.7459-.8737-9.3189,7.9544,3.9975-14.1887-.9417-1.0974-10.5622,9.0192.7486.873,9.3285-7.9601-4.0056,14.194Z" fill="#007046" stroke-width="0"></path><path d="M89.3146,365.0452l1.1969-1.2239,4.419,4.3204-3.7923,3.8671c-1.2057-.1217-2.3023-.4036-3.2898-.8364-.9882-.4358-1.8583-1.0218-2.6148-1.7644-1.0229-1.0111-1.7388-2.1382-2.148-3.3949-.4041-1.2534-.4108-2.5108-.0242-3.7569.3812-1.2483,1.0797-2.3834,2.0821-3.4042.999-1.0169,2.1355-1.7519,3.4146-2.2169,1.2905-.4617,2.5397-.5154,3.7553-.1618,1.2121.3576,2.3434,1.0388,3.3739,2.0572.7536.7373,1.318,1.5291,1.6855,2.3699.3705.8401.513,1.6493.4307,2.4249-.0807.7721-.3765,1.5976-.888,2.4779l-1.572-.8831c.3621-.6803.5785-1.2896.6442-1.8164.0632-.5294-.0326-1.0979-.2817-1.7076-.2543-.6037-.6388-1.1636-1.1667-1.6807-.6327-.6181-1.2722-1.0555-1.9141-1.3133-.6478-.2564-1.2691-.3719-1.8512-.3344-.5958.0395-1.1501.164-1.6715.3852-.8986.3885-1.7161.9542-2.4541,1.7099-.9132.9248-1.5142,1.8611-1.8013,2.7981-.2974.9374-.2881,1.8573.0251,2.7612.3119.8983.8108,1.6915,1.5048,2.3627.5978.5867,1.286,1.0435,2.0787,1.3699.7935.3297,1.467.5052,2.0185.5328l1.9002-1.9392-3.0597-3.0033Z" fill="#007046" stroke-width="0"></path><path d="M91.2667,372.3694l-.1593-.0134c-1.2439-.1266-2.3812-.4204-3.3989-.8646-1.0239-.4504-1.9387-1.0705-2.7209-1.8375-1.0529-1.0348-1.8093-2.2243-2.2309-3.5336-.4286-1.3196-.4399-2.6555-.0296-3.9699.4014-1.2929,1.1273-2.4832,2.166-3.5448,1.0272-1.0464,2.2219-1.821,3.5531-2.2981,1.3458-.4884,2.6846-.5448,3.9644-.166,1.2677.366,2.4531,1.0898,3.5227,2.1436.7782.7636,1.3718,1.5959,1.7631,2.4725.3846.8951.5378,1.7689.4542,2.6001-.0846.8251-.3961,1.7034-.9307,2.6165l-.1673.2996-2.1769-1.2125.1577-.3018c.343-.6432.5494-1.2166.6025-1.6991.0655-.4672-.0272-.9831-.25-1.5315-.2368-.5573-.6012-1.0817-1.0887-1.564-.5972-.5774-1.2099-.9995-1.8072-1.2356-.5983-.2419-1.168-.3462-1.6976-.3119-.548.033-1.0751.1559-1.5564.3584-.8508.3636-1.6377.9099-2.3388,1.6278-.8646.883-1.4487,1.78-1.7208,2.663-.272.8566-.2591,1.7126.0273,2.5418.2908.8464.7657,1.5963,1.4107,2.2285.5687.5536,1.2295.9905,1.9819,1.2947.6758.285,1.2636.4481,1.7406.4978l1.5451-1.5776-3.0643-3.0025,1.682-1.7181,4.9278,4.8084-4.1609,4.23ZM89.4209,356.7433c-.2412.0562-.4885.1324-.7373.2208-1.2302.4445-2.3406,1.1596-3.292,2.1303-.9532.9833-1.6282,2.0809-2.0018,3.2644-.362,1.173-.3531,2.3671.0294,3.549.3871,1.2006,1.0808,2.2916,2.0558,3.2479.7266.7129,1.5714,1.2815,2.5096,1.6938.9075.3978,1.9242.6664,3.0237.7915l3.431-3.4919-3.9209-3.8334-.7139.7221,3.0653,3.007-2.2582,2.2949-.1584-.0029c-.5983-.0305-1.2902-.2136-2.1231-.5617-.8336-.3432-1.5722-.825-2.2039-1.4386-.7207-.7142-1.2576-1.5522-1.5807-2.4984-.3388-.9732-.3485-1.974-.0368-2.9821.3122-.987.9407-1.9759,1.8905-2.9399.767-.7838,1.6303-1.383,2.5656-1.7848.5594-.2345,1.1534-.373,1.782-.4106.6394-.0421,1.3133.0828,2.0076.3556.6827.2743,1.3702.7466,2.0299,1.3892.5543.5523.9731,1.1528,1.2428,1.7975.2765.6616.3777,1.2919.3053,1.8815-.0607.489-.2375,1.037-.5237,1.6366l.9745.5478c.3826-.7171.6083-1.4054.671-2.0432.08-.7077-.0606-1.4684-.4036-2.2427-.3518-.8002-.8919-1.5609-1.6027-2.265-.9915-.9679-2.0778-1.6336-3.2309-1.9698-.904-.2641-1.8406-.2876-2.796-.0649Z" fill="#007046" stroke-width="0"></path><path d="M100.738,382.7359l8.5802-11.7932,4.4503,3.2399c.7865.5688,1.353,1.0414,1.7152,1.4195.5048.5162.8594,1.0523,1.0567,1.6097.191.5558.2302,1.1654.117,1.8288-.116.6581-.3916,1.2827-.8141,1.868-.7296,1.0034-1.6706,1.6176-2.8159,1.8478-1.1423.2296-2.5433-.2615-4.2141-1.4772l-3.0258-2.2011-3.4866,4.791-1.5629-1.1333ZM106.8015,377.687l3.0495,2.2235c1.0071.7268,1.8613,1.0668,2.5569.9966.7023-.0627,1.2979-.4433,1.79-1.1188.3587-.497.5442-1.0088.5454-1.5419.0086-.5349-.1502-1.0065-.4731-1.4121-.209-.2668-.6755-.6511-1.3862-1.1653l-3.0165-2.1989-3.066,4.2169Z" fill="#007046" stroke-width="0"></path><path d="M113.2555,383.0649l-.1567.0365c-1.2406.2493-2.7511-.2717-4.4939-1.5406l-2.7399-1.9986-3.4864,4.7975-2.1286-1.5437,8.9911-12.3622,4.7405,3.4464c.8082.5894,1.38,1.0658,1.7552,1.4592.544.5469.923,1.1356,1.129,1.7368.2153.6144.2553,1.285.1361,2.0018-.1288.7162-.4238,1.3884-.8825,2.0159-.7422,1.0273-1.7135,1.6827-2.8637,1.9508ZM105.7091,378.5912l3.307,2.4081c1.5749,1.1458,2.9092,1.6283,3.9481,1.4137l.1341-.0222c.9849-.2296,1.8151-.7997,2.4595-1.6882.3941-.536.6446-1.1181.7524-1.725.1075-.5977.0727-1.1532-.1046-1.6447-.1728-.5111-.4999-1.0075-.974-1.485-.3406-.3647-.901-.83-1.6614-1.3863l-4.1727-3.0274-8.1723,11.2248.9978.7262,3.486-4.794ZM112.7803,381.197h0c-.1104.0257-.2185.0478-.3373.0573-.7921.0774-1.706-.2701-2.8005-1.0624l-3.3283-2.4279,3.4804-4.7773,3.2957,2.3985c.7437.5373,1.2185.9382,1.4463,1.2251.3799.481.563,1.0295.5605,1.6363-.0111.6091-.2151,1.1927-.6189,1.7462-.4684.6452-1.04,1.0509-1.6979,1.2043ZM107.2861,377.6108l2.7708,2.0128c.9376.6787,1.7094.995,2.3184.9327.5938-.0465,1.1043-.3738,1.5413-.9749.3141-.4408.4757-.8764.4818-1.3373.0051-.4575-.1263-.8434-.4043-1.1951-.1225-.1584-.4617-.4836-1.313-1.0999l-2.7349-1.9904-2.6601,3.6521Z" fill="#007046" stroke-width="0"></path><path d="M117.4561,385.9292c1.2723-2.0576,2.8157-3.3331,4.6504-3.8187,1.8216-.4829,3.611-.1834,5.3586.8949,1.1512.7086,2.013,1.6195,2.5935,2.7306.5871,1.1129.811,2.3102.6907,3.594-.1172,1.2708-.5608,2.535-1.328,3.7767-.7769,1.259-1.7242,2.2272-2.8413,2.9135-1.1266.6791-2.305.9842-3.5552.9234-1.2485-.0671-2.4104-.4273-3.4885-1.0918-1.1658-.7174-2.0417-1.6495-2.6102-2.7822-.5725-1.1283-.7971-2.3285-.6688-3.5988.1301-1.2676.5261-2.4535,1.199-3.5415ZM119.1299,387.0003c-.9155,1.4936-1.2391,2.9226-.9635,4.2826.2706,1.352,1.0135,2.4039,2.2314,3.1553,1.234.7599,2.5215.9619,3.8568.5804,1.3359-.3788,2.4946-1.3655,3.4798-2.9613.6239-1.0151.9972-2.0025,1.1188-2.9651.1239-.966-.0143-1.8618-.4144-2.6784-.4059-.8209-1.0145-1.4878-1.8341-1.989-1.1658-.7174-2.4169-.9342-3.7383-.6507-1.3377.2779-2.5778,1.3573-3.7363,3.2262Z" fill="#007046" stroke-width="0"></path><path d="M124.7757,397.1357c-.5696.1328-1.1628.1823-1.7694.1552-1.3007-.0675-2.5326-.4509-3.6516-1.1398-1.2244-.759-2.142-1.7394-2.746-2.9249-.5977-1.1839-.8291-2.4591-.6949-3.7887.1319-1.3204.5498-2.5631,1.2456-3.69,1.3126-2.1284,2.9482-3.4684,4.8503-3.9729l.2166-.0505c1.8446-.4299,3.6675-.0984,5.4251.9836,1.1892.7396,2.1085,1.7077,2.7146,2.868.6142,1.1709.8601,2.4427.736,3.7886-.1275,1.3193-.5906,2.6369-1.3838,3.9245-.7973,1.3036-1.796,2.3204-2.9578,3.0262-.6392.3848-1.305.6623-1.9847.8208ZM122.3847,382.4038l-.1904.0444c-1.7329.4623-3.2198,1.6907-4.4437,3.6668-.6359,1.0364-1.0204,2.1735-1.1483,3.3917-.1168,1.1942.0971,2.3418.6365,3.4075.5371,1.0691,1.3747,1.9552,2.4829,2.6372,1.0208.6349,2.1419.9829,3.3196,1.0424,1.177.0562,2.2959-.235,3.3565-.8742,1.0675-.6503,1.9841-1.5928,2.7303-2.7926.7334-1.1971,1.1659-2.4157,1.2759-3.6328.1141-1.2058-.1035-2.3494-.6562-3.3938-.5505-1.0537-1.3802-1.9264-2.4648-2.5984-1.5957-.9848-3.2456-1.2833-4.8983-.8981ZM124.1007,395.4157c-1.3422.3128-2.648.0844-3.8846-.6812-1.3005-.7961-2.105-1.9412-2.3957-3.3864-.2831-1.4378.0524-2.9615,1.0173-4.5309,1.1796-1.9105,2.4783-3.0462,3.8755-3.3719l.0768-.012c1.4172-.3059,2.7578-.067,3.996.6919.8689.5417,1.5289,1.2579,1.9614,2.134.4271.8743.5825,1.8426.456,2.8769-.1333,1.0049-.5292,2.0528-1.1666,3.1017-1.0353,1.6686-2.2728,2.7195-3.6899,3.1172-.0793.0216-.1695.0426-.2462.0605ZM122.7923,383.785l.0806.3457c-1.2068.2813-2.36,1.3069-3.4361,3.049-.875,1.417-1.186,2.7697-.9286,4.0326.2519,1.2707.9312,2.227,2.0676,2.93,1.1656.7178,2.3674.894,3.588.5389,1.242-.3538,2.3393-1.2958,3.2754-2.8124.5919-.9618.9485-1.9087,1.0667-2.8213.1147-.8936-.0129-1.7307-.3845-2.4771-.375-.761-.9443-1.3847-1.7019-1.8482-1.094-.673-2.2323-.8731-3.4827-.6064l-.1445-.3308Z" fill="#007046" stroke-width="0"></path><path d="M130.2899,401.8657l6.7804-12.9126,1.707.8918-5.9788,11.3904,6.3598,3.3443-.8002,1.5279-8.0681-4.2417Z" fill="#007046" stroke-width="0"></path><path d="M138.5032,406.5729l-8.6866-4.5633,7.1071-13.5276,2.3267,1.2187-5.9896,11.3897,6.3648,3.3466-1.1224,2.1358ZM130.7569,401.7202l7.451,3.9138.4769-.9103-6.3627-3.338,5.989-11.3927-1.0911-.5693-6.463,12.2964Z" fill="#007046" stroke-width="0"></path><path d="M145.3637,409.378l2.5133-5.6424-1.6999-9.9681,2.1445.9551.8286,5.1912c.1537.9687.2717,1.9153.3516,2.8552.7122-.5182,1.5476-1.0864,2.5039-1.7077l4.3287-2.7609,2.0539.915-8.741,5.3082-2.5192,5.6438-1.7643-.7893Z" fill="#007046" stroke-width="0"></path><path d="M147.3075,410.6279l-2.4038-1.069,2.6189-5.8661-1.8059-10.513,2.9147,1.3021.869,5.3778c.1145.7605.2153,1.5211.2928,2.2748.5994-.4248,1.2767-.8828,2.0238-1.363l4.4855-2.8711,2.8354,1.2657-9.2116,5.5957-2.6189,5.8661ZM145.8297,409.2082l1.1244.5007,2.4209-5.428,8.2617-5.0193-1.2731-.5667-4.1731,2.66c-.9439.6152-1.7837,1.1848-2.4842,1.694l-.4963.3669-.0553-.6181c-.0771-.9282-.1979-1.8864-.3461-2.8319l-.799-5.0052-1.3781-.6096,1.614,9.4274-2.4157,5.4299Z" fill="#007046" stroke-width="0"></path><path d="M160.4456,415.4398l4.1811-12.1656-4.5469-1.5649.5565-1.6276,10.9411,3.7621-.5587,1.625-4.5663-1.5698-4.1766,12.1712-1.8302-.6303Z" fill="#007046" stroke-width="0"></path><path d="M162.4907,416.5131l-2.4825-.855,4.1774-12.1679-4.5477-1.5616.7832-2.2898,11.6012,3.9849-.7839,2.2868-4.5665-1.5694-4.1812,12.1719ZM160.8971,415.2276l1.1634.3993,4.1767-12.1709,4.5666,1.5697.3338-.9723-10.2813-3.527-.3345.9693,4.5526,1.5636-4.1773,12.1682Z" fill="#007046" stroke-width="0"></path><path d="M171.7325,418.8456l3.8656-14.0585,10.1736,2.7956-.4606,1.657-8.3065-2.2812-1.1858,4.3071,7.7834,2.1334-.4519,1.6553-7.7855-2.1423-1.3191,4.7942,8.6401,2.3659-.4585,1.6659-10.4949-2.8923Z" fill="#007046" stroke-width="0"></path><path d="M182.4754,422.1641l-11.1722-3.065,4.057-14.7404,10.8386,2.9806-.6442,2.3277-8.3065-2.2812-.998,3.6354,7.7754,2.1384-.6317,2.3219-7.7855-2.1423-1.1355,4.1235,8.6422,2.3748-.6398,2.3266ZM172.1596,418.6021l9.8258,2.7083.2689-.9938-8.6312-2.368,1.4998-5.4642,7.7796,2.1374.2726-.9793-7.7833-2.1334,1.3709-4.9781,8.3094,2.2805.2725-.9852-9.4987-2.613-3.6862,13.3888Z" fill="#007046" stroke-width="0"></path><path d="M199.1665,419.376l1.8321.7707c-.6383,1.5118-1.5414,2.592-2.7017,3.2636-1.1682.6584-2.4993.8799-4.0049.6487-1.5496-.23-2.7665-.7458-3.6475-1.5233-.876-.7822-1.4795-1.8145-1.8035-3.0925-.3203-1.2761-.3796-2.6068-.1716-3.9816.2308-1.5056.7172-2.7643,1.4651-3.7992.7408-1.0333,1.6834-1.7523,2.8347-2.1737,1.1515-.4218,2.3614-.5322,3.6312-.3349,1.4427.2179,2.5978.7726,3.4696,1.6536.8705.8904,1.3989,2.0202,1.5854,3.4191l-1.9479.1507c-.1763-1.098-.5414-1.935-1.1079-2.5195-.5589-.5773-1.3286-.937-2.2879-1.0778-1.1107-.173-2.075-.0461-2.9058.3712-.8206.4149-1.4573,1.0472-1.8908,1.9016-.4426.8474-.729,1.7471-.8714,2.693-.1911,1.236-.1732,2.3314.0419,3.2949.2168.9694.6712,1.7426,1.3531,2.3096.6878.5654,1.4685.9194,2.3468,1.0547,1.0743.1539,2.0189-.0051,2.8547-.5123.8379-.4986,1.4793-1.3403,1.9263-2.5164Z" fill="#007046" stroke-width="0"></path><path d="M196.8822,424.3312c-.8162.1902-1.7053.22-2.6406.0704-1.614-.2426-2.9011-.7847-3.8279-1.607-.9209-.8238-1.5643-1.9292-1.9063-3.2646-.3394-1.3175-.3968-2.7007-.1772-4.1239.2303-1.5484.7443-2.8779,1.5194-3.9467.7777-1.0848,1.7893-1.8566,3.0044-2.2932,1.1939-.4495,2.4657-.5653,3.7985-.3585,1.5152.2317,2.7488.8202,3.6649,1.7551.9278.9385,1.4873,2.1495,1.675,3.6127l.05.365-2.6252.2076-.0559-.3178c-.161-1.0191-.5006-1.8005-1.0126-2.3272-.5016-.5172-1.2091-.8453-2.0919-.9795-1.0256-.1561-1.9384-.0506-2.6882.3387-.7536.3808-1.3424.9684-1.7422,1.7506-.426.8068-.7025,1.6767-.8417,2.5973-.1836,1.17-.1645,2.2315.0408,3.1512.2033.9114.6112,1.6035,1.2373,2.1221.6335.5232,1.3603.8559,2.1754.9692.5679.0912,1.097.0752,1.5852-.0386h0c.3689-.086.7125-.2275,1.0399-.4202.7621-.4561,1.3616-1.2482,1.7775-2.3406l.129-.3333,2.4862,1.0407-.1333.3281c-.6691,1.571-1.6266,2.7254-2.8579,3.4226-.4983.2786-1.0278.4908-1.5826.6201ZM193.8729,409.5809c-.263.0613-.526.1411-.7888.23-1.0762.3948-1.9714,1.0874-2.6694,2.0555-.7072.9796-1.1769,2.21-1.3931,3.6479-.2093,1.329-.1518,2.6143.157,3.8408.3064,1.2028.8819,2.1865,1.7015,2.9175.8205.7336,1.9906,1.2205,3.4701,1.4392,1.4125.219,2.6812.012,3.7722-.6098,1.0112-.5757,1.8199-1.5084,2.4138-2.7646l-1.1793-.5064c-.4702,1.0774-1.115,1.8647-1.9311,2.3582-.3938.2358-.8066.4025-1.2439.5044h0c-.5738.1337-1.1956.1529-1.8502.0574-.9396-.1482-1.7845-.5271-2.5127-1.1355-.7478-.6129-1.2379-1.448-1.4731-2.4959-.225-1.0042-.2419-2.1547-.0524-3.4179.1548-.9854.4614-1.936.9117-2.8096.4741-.9099,1.1573-1.6052,2.0479-2.0549.8934-.45,1.9388-.5774,3.1124-.4037,1.0345.154,1.8716.5592,2.4874,1.1844.5545.572.9376,1.3678,1.1426,2.386l1.2546-.0964c-.2139-1.1479-.6895-2.1118-1.431-2.8548-.8059-.823-1.9101-1.3556-3.2736-1.5556-.9201-.1437-1.8231-.1142-2.6726.0838Z" fill="#007046" stroke-width="0"></path><path d="M205.7809,425.2769l.9547-14.5624,1.9274.1234-.3877,5.9834,7.5623.4945.3881-5.9831,1.9295.132-.9508,14.5524-1.9278-.1236.4474-6.8576-7.5623-.4945-.4489,6.8579-1.9319-.1224Z" fill="#007046" stroke-width="0"></path><path d="M217.5269,426.3888l-2.618-.1676.4474-6.8576-6.8696-.4602-.4498,6.8675-2.6216-.1761.9977-15.2461,2.6187.1705-.3901,5.9745,6.8676.4513.3938-5.9785,2.6199.1706-.9961,15.2516ZM215.6515,425.5642l1.22.0832.9176-13.8553-1.2395-.0878-.3857,5.9732-8.2606-.5277.3851-5.9824-1.2286-.0812-.907,13.8619,1.236.0795.4489-6.8579,8.257.538-.4432,6.8566Z" fill="#007046" stroke-width="0"></path><path d="M223.3972,426.169l-.2364-14.5814,1.9801-.0328,7.8443,11.3291-.1875-11.4478,1.8594-.0382.2344,14.5913-1.9853.0309-7.8419-11.3388.1806,11.4585-1.8477.0292Z" fill="#007046" stroke-width="0"></path><path d="M235.2352,426.3287l-2.5082.0396-7.2984-10.5437.1706,10.6646-2.5446.0355-.2486-15.2833,2.5157-.041,7.2933,10.5355-.1707-10.646,2.5526-.0405.2383,15.2794ZM233.0869,425.6655l1.4416-.0236-.2179-13.8845-1.155.018.1999,12.2503-8.398-12.1221-1.4452.0214.2249,13.8954,1.155-.018-.1995-12.2689,8.3943,12.132Z" fill="#007046" stroke-width="0"></path><path d="M241.2436,425.5561l-1.1016-14.5485,1.9274-.146,1.1034,14.5481-1.9292.1464Z" fill="#007046" stroke-width="0"></path><path d="M243.5473,425.7357l-2.6281.1901-1.1513-15.2354,2.6266-.2017,1.1527,15.2469ZM241.5655,425.184l1.2273-.0963-1.0425-13.8485-1.2287.0904,1.0439,13.8544Z" fill="#007046" stroke-width="0"></path><path d="M259.0093,418.4228l1.9796.2276c-.1872,1.6212-.7447,2.915-1.6749,3.8851-.9294.9668-2.1455,1.5567-3.6521,1.7548-1.5614.22-2.8691.0685-3.9299-.4285-1.0663-.502-1.9332-1.3229-2.6059-2.4555-.6714-1.1328-1.1029-2.3921-1.2894-3.7637-.2081-1.5105-.0976-2.8623.3255-4.0636.4184-1.1999,1.1255-2.1613,2.1043-2.8825.9857-.7319,2.1123-1.1814,3.3932-1.3545,1.4409-.1919,2.7104.0055,3.7962.6099,1.0801.5997,1.9144,1.5447,2.4856,2.8263l-1.8264.6923c-.4789-.997-1.0688-1.7019-1.7696-2.0928-.7062-.4021-1.5407-.52-2.5095-.3923-1.107.1511-1.9997.5458-2.6718,1.1772-.6765.6325-1.1024,1.4208-1.2815,2.3598-.1815.9368-.206,1.8827-.0737,2.8379.1642,1.2238.491,2.2776.97,3.1432.4844.87,1.1382,1.4803,1.9525,1.8265.8185.3574,1.6645.4726,2.545.347,1.0774-.1407,1.9394-.5747,2.5998-1.295.6568-.7167,1.0329-1.6988,1.1327-2.9593Z" fill="#007046" stroke-width="0"></path><path d="M256.4557,424.5096c-.2383.0555-.4922.0962-.7494.1286-1.6184.2242-3.0081.0642-4.1203-.4638-1.1211-.5256-2.0512-1.4024-2.7586-2.5911-.6965-1.1608-1.1471-2.4831-1.3384-3.8962-.2096-1.556-.0942-2.9794.3429-4.2179.4443-1.2612,1.1965-2.2848,2.2296-3.0554,1.0235-.7595,2.2075-1.2315,3.5528-1.4193,1.5122-.1994,2.8605.0132,4.008.6521,1.151.6353,2.0408,1.6469,2.6343,2.9848l.1472.3424-2.4635.9418-.1422-.2883c-.4473-.9341-.9888-1.5889-1.6293-1.9511-.6254-.3444-1.3947-.4712-2.2821-.344-1.0363.1343-1.867.5057-2.4846,1.0815-.6177.5818-1.01,1.3165-1.1779,2.1732-.1765.8989-.1978,1.8196-.0711,2.7304.1564,1.1701.4752,2.1894.9309,3.014.4535.8101,1.0387,1.363,1.7854,1.682.7514.327,1.547.4357,2.366.3151.9909-.1297,1.7772-.5212,2.3847-1.1806.5979-.66.9564-1.5856,1.0387-2.7505l.029-.3558,2.6888.295-.0438.3502c-.1878,1.6916-.7899,3.0695-1.7687,4.0939-.8175.8551-1.8679,1.4399-3.1083,1.729ZM252.9918,409.8196c-.9266.216-1.7723.6028-2.5124,1.152-.9254.6814-1.5897,1.5959-1.989,2.727-.4032,1.1352-.5045,2.4484-.3082,3.888.1774,1.3398.6007,2.5584,1.2439,3.6426.6387,1.0702,1.4639,1.8457,2.455,2.3128.9973.4751,2.2525.6112,3.7369.4092,1.4118-.1851,2.5705-.7522,3.443-1.6537.8091-.8318,1.32-1.9649,1.5322-3.3403l-1.2733-.1413c-.1472,1.1555-.5406,2.0956-1.1872,2.8036-.6031.658-1.3733,1.0982-2.2913,1.3122h0c-.1612.0376-.3376.0693-.5115.0916-.9406.1302-1.8611.0048-2.7334-.3737-.8854-.3754-1.5997-1.0422-2.118-1.978-.5064-.905-.8427-1.9996-1.0215-3.2657-.1306-.9801-.1038-1.9818.0833-2.9474.1897-1.0121.6585-1.8656,1.387-2.5438.7217-.6888,1.6829-1.118,2.8676-1.2778,1.039-.1349,1.9549.0098,2.723.4404.6898.3843,1.2826,1.0424,1.7738,1.9601l1.1672-.4527c-.5262-1.0412-1.2575-1.8201-2.1748-2.3323-1.0084-.5613-2.2184-.754-3.5797-.5622-.2444.0294-.4829.0759-.7125.1294Z" fill="#007046" stroke-width="0"></path><path d="M275.2617,420.4201l-4.1241-13.988,1.8974-.5586,10.5882,8.8184-3.2359-10.9794,1.771-.5291,4.1217,13.9979-1.9015.5596-10.5881-8.8367,3.24,10.9966-1.7686.5192Z" fill="#007046" stroke-width="0"></path><path d="M275.0291,420.8604l-4.3283-14.6664,2.4167-.7163,9.851,8.2122-3.0136-10.2164,2.4426-.7224,4.3194,14.6685-2.4098.7056-9.8513-8.2121,3.0113,10.2257-2.438.7216ZM271.5686,406.6716l3.9237,13.318,1.1077-.3193-3.4599-11.7693,11.325,9.443,1.384-.4023-3.9214-13.328-1.11.3293,3.4629,11.7501-11.3211-9.4345-1.391.413Z" fill="#007046" stroke-width="0"></path><path d="M289.0979,408.7664c-.8623-2.2613-.941-4.2674-.2192-6.0131.7288-1.7348,2.0498-2.9861,3.9664-3.7177,1.258-.483,2.5105-.6219,3.7427-.407,1.2476.2207,2.3357.7634,3.277,1.6282.9462.8731,1.6741,1.9927,2.2015,3.3551.5227,1.376.7235,2.7167.5833,4.0202-.1387,1.3035-.6143,2.4373-1.4173,3.3932-.8074.9509-1.8034,1.6576-2.9872,2.1114-1.2782.4877-2.5429.6203-3.7939.385-1.2407-.2314-2.3308-.783-3.2653-1.6585-.9325-.8668-1.6307-1.9047-2.088-3.0968ZM290.9715,408.0788c.6254,1.6456,1.5676,2.7709,2.8111,3.3752,1.2469.6066,2.5292.6477,3.8613.1412,1.3556-.5242,2.2912-1.4313,2.8001-2.7229.5155-1.284.4305-2.8047-.2427-4.5559-.4243-1.1111-.9852-2.0002-1.6747-2.6907-.6961-.6801-1.4864-1.1147-2.3835-1.2914-.8967-.1739-1.7921-.0998-2.6898.2534-1.2763.4841-2.2036,1.3466-2.7878,2.5729-.5861,1.2302-.4849,2.8726.3058,4.9182Z" fill="#007046" stroke-width="0"></path><path d="M297.292,413.7907c-.9733.2269-1.9498.249-2.8982.0752-1.3166-.2476-2.4693-.8304-3.4517-1.7408-.958-.9036-1.6922-1.9976-2.1675-3.2282-.8957-2.3454-.97-4.4507-.2086-6.2759.7527-1.8232,2.155-3.1455,4.1563-3.915,1.3139-.4932,2.6333-.6414,3.9295-.4138,1.3019.2234,2.4655.7943,3.4494,1.7106.9804.9015,1.7518,2.0756,2.2893,3.4814.5473,1.4224.7506,2.8327.605,4.1929-.1417,1.3685-.6445,2.5698-1.4989,3.5744-.8392.9919-1.8865,1.729-3.1271,2.2083-.3573.1354-.7171.2468-1.0774.3308ZM293.9553,399.0556c-.3225.0752-.6526.1766-.9887.3101-1.8142.6923-3.0776,1.8812-3.7596,3.5286-.6869,1.6454-.6106,3.5818.2215,5.7523.4382,1.132,1.1061,2.1311,1.9987,2.9642.8724.8257,1.9082,1.347,3.0932,1.57,1.1751.2191,2.3961.097,3.6034-.3745,1.1172-.4288,2.0825-1.1101,2.8444-2.0135.755-.8929,1.208-1.9664,1.3376-3.1971.1276-1.2394-.0586-2.5374-.5694-3.861-.4958-1.2995-1.2107-2.3886-2.1068-3.2179-.8811-.8239-1.9298-1.3419-3.0964-1.5448-.8524-.1413-1.715-.1177-2.578.0834ZM296.9952,412.1569c-1.1458.2671-2.2791.1361-3.3645-.3887-1.3289-.649-2.33-1.8489-2.9891-3.5667-.819-2.1277-.9139-3.882-.297-5.1896.625-1.3001,1.6253-2.2317,2.9816-2.753.9632-.3685,1.9267-.4582,2.8896-.263.9543.1909,1.818.651,2.558,1.3821.7203.7112,1.3083,1.6583,1.7509,2.8078.7066,1.8353.7884,3.4549.2449,4.8157-.5458,1.383-1.5535,2.3621-2.9976,2.9132-.2622.1038-.5169.1816-.7768.2422ZM294.2292,400.7098c-.2166.0505-.4332.1195-.6523.1981-1.2012.4575-2.0479,1.246-2.593,2.4021-.5436,1.1312-.4318,2.7009.3135,4.6498.5887,1.5473,1.4833,2.619,2.6363,3.1832,1.1507.5557,2.3569.6054,3.5888.1223,1.2653-.485,2.1257-1.3134,2.6022-2.5146.4716-1.2032.389-2.6542-.2488-4.3127-.4062-1.0538-.9439-1.9208-1.5968-2.568-.6354-.6297-1.3822-1.0283-2.2036-1.1953-.6128-.1266-1.2347-.1074-1.8463.0352Z" fill="#007046" stroke-width="0"></path><path d="M309.7453,408.1742l-6.2929-13.1607,5.8302-2.7925c1.1764-.5621,2.1301-.8732,2.8471-.9239.723-.0522,1.4053.1288,2.0597.5521.6526.4209,1.1535.9932,1.497,1.7185.4506.9334.5254,1.8653.226,2.7957-.2978.93-1.0394,1.7828-2.2151,2.5593.5644.0033,1.0207.056,1.357.1585.7381.2228,1.4951.5733,2.2839,1.054l4.0076,2.4963-2.1943,1.038-3.0549-1.9036c-.8833-.5443-1.5911-.9461-2.1171-1.2061-.5312-.2623-.9665-.4211-1.3058-.4584-.3431-.0458-.6608-.042-.9613.028-.2166.0505-.5537.1811-1.0042.4025l-2.0146.9626,2.7906,5.8425-1.739.8372ZM307.9702,399.9878l3.7402-1.7844c.7959-.3906,1.3844-.7696,1.7514-1.1525.3713-.3713.5843-.7976.6471-1.2777.0567-.4727-.013-.9222-.2196-1.3485-.2931-.621-.7622-1.0232-1.4108-1.2117-.6383-.1821-1.4465-.0367-2.4279.4248l-4.1668,1.9911,2.0863,4.3589Z" fill="#007046" stroke-width="0"></path><path d="M309.5758,408.6428l-6.5931-13.7985,6.1499-2.9373c1.2125-.5796,2.2082-.9004,2.9734-.9625.8002-.0611,1.5611.1476,2.2758.618.7054.4512,1.2495,1.0777,1.6247,1.8603.4812,1.0056.5644,2.0337.2407,3.0494-.2497.7748-.7836,1.4996-1.577,2.1684.1774.032.3427.0641.485.1043.7618.233,1.5614.6011,2.3659,1.0963l4.5479,2.8176-2.9406,1.4111-3.2099-2.0114c-.8604-.5252-1.5674-.924-2.0965-1.1958-.4944-.2429-.8946-.3827-1.1943-.4198-.3039-.0364-.5829-.0235-.8449.0282-.1235.0288-.3938.1166-.9206.3739l-1.7052.8111,2.7971,5.8501-2.3783,1.1364ZM303.916,395.1749l5.9924,12.5294,1.1111-.5346-2.7955-5.8442,2.3357-1.108c.4779-.2372.8266-.3705,1.069-.427.3462-.0713.7104-.0859,1.0874-.0389.3849.0542.8454.2041,1.409.4864.5513.2758,1.2796.6878,2.1544,1.2344l2.8923,1.7975,1.4463-.6865-3.4653-2.1479c-.7582-.4662-1.4956-.8058-2.1967-1.0285-.3026-.0888-.7294-.1329-1.2671-.1334l-1.1504-.0013.9623-.6348c1.1051-.7324,1.8052-1.5326,2.0786-2.3835.2732-.8446.2025-1.6796-.2106-2.5327-.31-.6598-.7726-1.198-1.3669-1.5804-.5909-.3797-1.1908-.5554-1.8457-.5006-.6859.0526-1.6003.3545-2.7211.8945l-5.5191,2.64ZM307.8052,400.449l-2.3831-4.9819,4.4803-2.1439c1.055-.5062,1.9493-.6441,2.6724-.4454.7454.2214,1.2931.6849,1.6345,1.4017.2289.4826.3132,1.0021.2424,1.5392-.0689.552-.3163,1.0475-.7392,1.4801-.403.4063-1.0207.8106-1.8499,1.209l-4.0575,1.9412ZM306.3536,395.7982l1.7777,3.7233,3.4289-1.6413c.7591-.3576,1.3057-.718,1.6508-1.0647.322-.3263.5021-.6838.5498-1.0778.0513-.4162-.0113-.7965-.1797-1.1587-.2585-.5306-.6518-.8708-1.1964-1.0195-.5551-.1679-1.2967-.0318-2.1821.4013l-3.849,1.8374Z" fill="#007046" stroke-width="0"></path><path d="M325.6399,400.3381l-7.4823-12.5224,2.4926-1.4874,8.2642,7.0933c.7652.655,1.3314,1.16,1.7088,1.4916-.1332-.5325-.3128-1.3422-.5332-2.3994l-2.2079-10.5112,2.2251-1.3272,7.4871,12.5242-1.5996.9546-6.268-10.4868,2.6279,12.6616-1.4932.8931-9.9926-8.4978,6.3709,10.6589-1.5996.9549Z" fill="#007046" stroke-width="0"></path><path d="M325.5184,400.8164l-7.838-13.1223,3.009-1.7946,8.4533,7.2546c.3331.299.638.5494.8956.7867-.087-.3934-.1848-.8451-.2946-1.3555l-2.2548-10.7514,2.7424-1.6441,7.8379,13.1223-2.201,1.3187-5.3787-9.0097,2.2579,10.8765-1.9271,1.1473-8.5737-7.2908,5.474,9.1496-2.2023,1.3128ZM318.6373,387.9365l7.1244,11.9259.9979-.6002-7.1243-11.9256-.9981.5999ZM319.7223,387.2887l11.1769,9.5048,1.0644-.6433-2.9874-14.3937-.7044.4213,2.1535,10.2576c.2249,1.0562.4045,1.8659.5332,2.3994l.269,1.0949-.8432-.7528c-.3665-.3373-.9292-.8341-1.6936-1.4857l-8.0731-6.9421-.8954.5396ZM328.9924,381.7528l7.1176,11.9181,1.0024-.6012-7.1223-11.917-.9976.6001Z" fill="#007046" stroke-width="0"></path><path d="M341.5618,390.5564l-4.3038-15.0212,1.6553-1.2555,13.5502,8.0575-1.7561,1.322-4.0197-2.5026-4.8694,3.6678,1.3796,4.4992-1.6361,1.2328ZM341.3146,383.2419l3.9513-2.9821-3.6475-2.3105c-1.1094-.7002-1.9883-1.2916-2.6446-1.7941.4124.8626.759,1.7588,1.0464,2.7026l1.2944,4.3842Z" fill="#007046" stroke-width="0"></path><path d="M341.3634,391.1386l-4.5141-15.7408,2.0437-1.533.2009.1125,13.9937,8.3308-2.3641,1.7761-4.0167-2.5033-4.4872,3.3767,1.3759,4.4969-2.2322,1.6841ZM337.656,375.666l4.1001,14.3059,1.0321-.7766-1.3796-4.4992,5.2611-3.9583,4.0197,2.5026,1.1482-.8679-12.9042-7.678-.6512.504.8986.6756c.6482.4953,1.5322,1.0946,2.6232,1.7806l4.0711,2.5793-4.752,3.5793-1.439-4.8591c-.274-.9131-.6228-1.8056-1.0269-2.6457l-.4915-1.0308-.5098.3882ZM339.801,377.1814c.2012.5076.3914,1.0359.5538,1.5739l1.1515,3.9028,3.147-2.3719-3.2203-2.0425c-.609-.379-1.1568-.7443-1.632-1.0623Z" fill="#007046" stroke-width="0"></path><path d="M355.9078,379.2832l-9.8277-10.7843,1.4324-1.2923,8.6606,9.5096,5.3177-4.8324,1.1569,1.2712-6.7399,6.1283Z" fill="#007046" stroke-width="0"></path><path d="M355.8802,379.7826l-10.2886-11.3044,1.9454-1.7707,8.6567,9.5199,5.3157-4.841,1.6318,1.7975-7.261,6.5988ZM346.5732,368.525l9.3589,10.2717,6.2208-5.6613-.686-.7622-5.3193,4.8387-8.6616-9.5153-.9128.8284Z" fill="#007046" stroke-width="0"></path><path d="M367.155,347.3173l1.2905-1.4277,6.2565,5.6472c1.0898.9832,1.8415,1.8831,2.2603,2.7073.4152.8221.5359,1.7342.3549,2.7443-.1784,1.0094-.7373,2.0279-1.6849,3.0727-.9142,1.0185-1.8331,1.689-2.7651,2.0135-.935.3252-1.8516.3337-2.7691.0116-.9102-.3179-1.9389-.9998-3.083-2.0319l-6.2585-5.6558,1.2954-1.4323,6.2459,5.6406c.9415.8465,1.7121,1.3927,2.316,1.6195.6042.2267,1.221.2451,1.844.0265.6248-.1977,1.2167-.6145,1.7778-1.2292.9459-1.0535,1.3876-2.0233,1.3112-2.9027-.0701-.8781-.7816-1.9341-2.1483-3.1593l-6.2435-5.6442Z" fill="#007046" stroke-width="0"></path><path d="M372.4617,362.5551c-.8338.1943-1.6658.1462-2.4795-.1387-.9448-.3343-2.0253-1.0412-3.2054-2.1106l-6.5104-5.8822,1.7595-1.9506,6.5048,5.8835c.9052.8089,1.6498,1.3366,2.2072,1.5467.5271.1989,1.0596.2094,1.6108.026.5647-.1931,1.1134-.5719,1.6216-1.1376.8839-.9778,1.2918-1.8692,1.2337-2.6429-.0691-.7833-.7487-1.7671-2.0391-2.9275l-6.5031-5.8776,1.7625-1.9513,6.5141,5.8845c1.1111,1.009,1.8962,1.9591,2.3331,2.8098.4527.8899.5848,1.8913.3911,2.9654-.1898,1.0641-.7845,2.1521-1.7737,3.2433-.9458,1.0538-1.9252,1.766-2.9106,2.112-.17.0578-.3482.1088-.5165.148ZM361.2538,354.3773l5.994,5.4145c1.1058.998,2.1081,1.6588,2.9675,1.9697.8334.2897,1.685.2781,2.532-.0172.8701-.301,1.7582-.9458,2.6295-1.9116.8921-.9951,1.4299-1.972,1.6041-2.9067.1582-.9251.053-1.7705-.3336-2.5225-.3935-.7811-1.1255-1.6611-2.1796-2.61l-5.9967-5.4136-.8258.9122,5.9904,5.4122c1.4392,1.2998,2.1776,2.4051,2.2605,3.3903.0828.973-.3959,2.0339-1.4052,3.1574-.5971.657-1.2382,1.1125-1.9219,1.3333-.7042.2375-1.4033.2198-2.0753-.0341-.6538-.2428-1.4436-.7935-2.4258-1.6826l-5.9896-5.4092-.8245.9179Z" fill="#007046" stroke-width="0"></path><path d="M383.2356,350.9629l-11.5125-8.9612,1.2129-1.5629,13.7484.9974-9.0329-7.0461,1.1332-1.4584,11.5078,8.9651-1.2109,1.5596-13.7542-.9964,9.0442,7.0435-1.1361,1.4594Z" fill="#007046" stroke-width="0"></path><path d="M383.2952,351.4542l-12.0602-9.3908,1.5437-1.9831,12.7873.9213-8.4016-6.5469,1.5615-2.0117,12.0596,9.3881-1.549,1.9872-12.7887-.9272,8.4148,6.5501-1.5674,2.0131ZM372.2144,341.9421l10.9561,8.5304.7141-.9044-9.6746-7.5398,14.7116,1.0702.8857-1.1407-10.966-8.534-.7011.9076,9.6596,7.5279-14.6959-1.0553-.8895,1.1382Z" fill="#007046" stroke-width="0"></path><path d="M393.9546,336.6637l-12.0386-8.2474,1.0999-1.589,12.0291,8.2468-1.0904,1.5896Z" fill="#007046" stroke-width="0"></path><path d="M394.0401,337.149l-12.6052-8.6422,1.4888-2.1663,12.6118,8.6438-1.4954,2.1648ZM382.4015,328.3305l11.4559,7.8503.6976-1.0141-11.4535-7.8537-.7,1.0175Z" fill="#007046" stroke-width="0"></path><path d="M406.8516,315.1923l-13.2897-6.0342,4.3679-9.6029,1.5682.7096-3.5669,7.8497,4.0654,1.8455,3.3409-7.3482,1.5632.7016-3.3367,7.3532,4.5189,2.0554,3.6969-8.1585,1.5662.7144-4.4944,9.9144Z" fill="#007046" stroke-width="0"></path><path d="M407.0295,315.653l-13.9263-6.3205,4.6509-10.2416,2.2052.9989-3.5639,7.849,3.4357,1.5608,3.3316-7.3479,2.2006.9925-3.337,7.3504,3.8902,1.7641,3.6916-8.156,2.1996,1.0002-4.7782,10.5501ZM394.0329,308.9856l12.6424,5.7394,4.2124-9.2728-.9318-.4229-3.6986,8.1513-5.1575-2.3384,3.3333-7.3527-.9206-.4161-3.341,7.3482-4.7021-2.1322,3.5669-7.8497-.9316-.423-4.0719,8.9688Z" fill="#007046" stroke-width="0"></path><path d="M413.5298,299.9821l-13.7151-4.981,2.2143-6.0842c.4495-1.2241.9028-2.1047,1.385-2.6502.4811-.5518,1.0986-.8977,1.8559-1.0514.7633-.155,1.5287-.0913,2.2753.1816.9711.3557,1.6826.9649,2.1223,1.8393.4353.8692.505,1.9955.2056,3.3778.4042-.3943.7612-.6751,1.0795-.8475.6778-.3509,1.4734-.6298,2.3738-.8396l4.5938-1.0262-.831,2.2809-3.5124.7789c-1.0158.2277-1.8001.4365-2.3576.6201-.5634.1849-.9839.3777-1.2536.5876-.2761.2083-.501.4398-.6702.6985-.1153.189-.256.5176-.4238.9807l-.7681,2.1056,6.0851,2.2184-.659,1.8108ZM406.5287,295.3841l1.4183-3.9003c.2967-.83.4564-1.512.4526-2.0396-.0064-.5282-.1442-.9875-.437-1.3634-.2878-.3802-.6547-.6531-1.1053-.8131-.637-.2357-1.2585-.195-1.8453.1256-.5907.3168-1.0663.9837-1.4384,2.0013l-1.5805,4.3364,4.5355,1.6532Z" fill="#007046" stroke-width="0"></path><path d="M413.7383,300.4296l-14.3628-5.2236,2.3255-6.4087c.4599-1.2723.944-2.1771,1.4482-2.76.4973-.5738,1.144-.9529,1.9311-1.1363l.1223-.0285c.8164-.1627,1.6425-.1009,2.4649.1957,1.0518.3858,1.8277,1.0612,2.3095,2.0099.362.7257.4937,1.6186.394,2.6496.1438-.1056.2801-.191.4164-.2627.702-.3656,1.5217-.6592,2.4337-.8718l5.2406-1.1682-1.1094,3.058-3.973.8771c-.8659.2018-1.5631.3904-2.053.5491-.5204.1718-.9064.3552-1.1517.5379-.2394.1812-.442.3894-.5834.6108-.0724.1103-.2004.3635-.3972.9118l-.6512,1.7782,6.0955,2.2101-.9001,2.4717ZM400.264,294.7879l13.052,4.7507.4308-1.1617-6.0958-2.2116.8867-2.4362c.1798-.4907.3351-.8361.4692-1.0496.1943-.2965.44-.5557.7444-.7876.3131-.2339.7537-.4451,1.3539-.6433.5148-.1689,1.2265-.3608,2.1156-.5681l3.6088-.7969.5471-1.5024-3.9826.8885c-.8742.2038-1.6323.4739-2.283.8094-.2744.1496-.6171.4132-.9926.7871l-.8319.8064.2389-1.1308c.2896-1.2941.2202-2.353-.1802-3.1507-.3962-.7943-1.0231-1.3419-1.9204-1.6703-.6946-.2455-1.3905-.3022-2.0813-.1644l-.1047.0244c-.6419.1496-1.1677.456-1.5609.9108-.4492.5165-.8901,1.3713-1.3245,2.543l-2.0894,5.7534ZM406.7399,295.831l-5.1989-1.8862,1.7017-4.6691c.397-1.0955.9343-1.8257,1.6022-2.1925.6721-.3621,1.3991-.4105,2.1378-.1448.5092.1862.9273.4961,1.2611.9298.3298.4422.5048.9697.5049,1.5743-.0012.5733-.1634,1.297-.4683,2.1568l-1.5405,4.2317ZM402.4412,293.524l3.8788,1.4111,1.2988-3.572c.2889-.7843.4295-1.4296.4299-1.9136-.0004-.4622-.1224-.8412-.3623-1.1603-.2507-.3276-.5583-.5561-.9368-.6959-.5603-.1959-1.077-.1658-1.5747.1036-.502.2776-.9391.885-1.2758,1.8194l-1.4578,4.0076Z" fill="#007046" stroke-width="0"></path><path d="M414.6457,282.6947l.3442-1.7954c.7255.1172,1.3556.0867,1.8966-.0883.536-.171,1.0316-.5406,1.4864-1.1001.4646-.5552.8084-1.2356,1.0389-2.0339.1975-.7028.2737-1.3622.2214-1.9672-.0602-.6-.2313-1.0839-.523-1.4553-.2904-.3657-.6554-.6175-1.0853-.7409-.4455-.1245-.8644-.1078-1.2667.0578-.4036.1615-.7992.5002-1.1912,1.0266-.2536.3316-.7208,1.0988-1.3936,2.2988-.6785,1.2025-1.2261,2.0192-1.6477,2.4574-.5411.5702-1.115.9458-1.7375,1.1263-.6166.1804-1.239.1768-1.8825-.0085-.7099-.2068-1.3145-.594-1.8136-1.1714-.5053-.5775-.7983-1.2964-.9025-2.1631-.0937-.862-.0126-1.7628.257-2.7078.2997-1.0405.723-1.905,1.2943-2.6078.5597-.6988,1.2254-1.1678,2.0015-1.4115.7685-.2375,1.569-.2585,2.403-.0577l-.3694,1.8179c-.9214-.1559-1.6831-.0195-2.2896.4004-.6125.42-1.0743,1.1725-1.3772,2.2507-.3206,1.1219-.3536,2.0043-.0863,2.6263.2648.6367.6886,1.0357,1.2683,1.196.497.1492.9718.0827,1.3999-.1823.424-.2704,1.0229-1.1037,1.7996-2.516.7724-1.4157,1.3582-2.3592,1.7863-2.8479.606-.7111,1.2545-1.1746,1.9425-1.4024.6894-.2234,1.4086-.2258,2.157-.0098.7531.209,1.3924.6251,1.9254,1.2435.5476.615.8799,1.3706,1.0185,2.2801.1409.9074.0565,1.8582-.2248,2.8593-.3573,1.2657-.8526,2.2815-1.4585,3.0321-.6178.7537-1.3715,1.2646-2.253,1.5422-.8789.2767-1.7912.2917-2.7384.0518Z" fill="#007046" stroke-width="0"></path><path d="M417.1148,283.0776c-.8192.1909-1.6842.1721-2.5567-.0501l-.3192-.0818.4686-2.4432.3357.0475c.6686.1089,1.2444.0819,1.7391-.0685.4663-.1548.9067-.4854,1.328-.991.4239-.52.7477-1.1544.9698-1.9105.183-.6599.2555-1.2817.2054-1.838-.0589-.5285-.2052-.9598-.4465-1.2712-.2526-.3087-.5462-.5175-.9159-.6195-.374-.1057-.7045-.0917-1.0382.0397-.3271.1346-.6753.4409-1.0307.9127-.2497.3216-.7066,1.082-1.3772,2.2642-.6959,1.2326-1.2533,2.061-1.7047,2.529-.5777.6095-1.2085,1.0168-1.8824,1.2137-.6912.1887-1.3775.2-2.0835-.003-.7733-.2177-1.4376-.6497-1.9796-1.2798-.5443-.6265-.8699-1.419-.985-2.3462-.104-.9066-.0087-1.8647.277-2.8455.3051-1.0832.7564-1.9985,1.3481-2.7323.604-.7455,1.3325-1.2599,2.1705-1.5274.8295-.2652,1.703-.2759,2.5861-.0605l.3348.0828-.5163,2.4754-.3316-.0557c-.8122-.1478-1.498-.0278-2.0311.3386-.5383.372-.9604,1.0706-1.2358,2.0569-.2983,1.0465-.3284,1.8498-.1015,2.4019.2224.5346.5624.8628,1.0467.9964.4079.1207.7703.0713,1.1114-.1474.263-.1592.7634-.7061,1.6788-2.3882.7967-1.4446,1.3865-2.3966,1.8221-2.9055.6563-.758,1.3656-1.2633,2.1079-1.5081.7579-.2441,1.5517-.2547,2.3643-.0139.8097.2281,1.5213.6791,2.0954,1.3432.5821.67.9459,1.4947,1.0977,2.4623.1425.9531.0679,1.9597-.2295,3.0091-.3834,1.3128-.889,2.3756-1.5395,3.1583-.6495.8006-1.466,1.3585-2.4078,1.6545-.1286.0394-.2466.0713-.3745.1011ZM415.0496,282.4306c.7653.1431,1.507.1051,2.2302-.1171.8186-.2582,1.5123-.7386,2.0831-1.4305.5829-.7176,1.0511-1.692,1.401-2.9114.2716-.9499.338-1.8614.2096-2.7134-.126-.83-.4405-1.536-.9281-2.1039-.4893-.5612-1.0807-.944-1.7593-1.1348-.6834-.1992-1.3426-.2017-1.9561.004-.6254.2085-1.2262.6396-1.7977,1.3012-.3943.4639-.9801,1.4058-1.7334,2.7866-.8234,1.4997-1.4342,2.3358-1.9288,2.644-.4984.3185-1.083.3995-1.671.2289-.6864-.1985-1.1938-.6667-1.5018-1.3975-.2972-.7101-.2727-1.6422.0713-2.8602.3287-1.1517.8444-1.9748,1.514-2.4401.6087-.4238,1.3485-.5869,2.2109-.5015l.2417-1.1575c-.6571-.1119-1.3015-.0642-1.8891.1217-.7066.2139-1.315.6512-1.8425,1.2932-.5271.6557-.9319,1.4943-1.2159,2.4825-.2592.8981-.3424,1.7643-.2471,2.5798.0879.7849.3644,1.4465.8177,1.9715.4487.5189,1.0011.8785,1.6409,1.0602.5736.1617,1.1388.1818,1.6953.0075.548-.1582,1.0874-.5122,1.576-1.0303.4055-.416.9431-1.2228,1.5995-2.3882.688-1.2261,1.1595-1.9899,1.4233-2.3424.4355-.5763.8651-.9534,1.3333-1.1394.4716-.1849.9761-.2137,1.4943-.0664.4993.1439.9253.4351,1.2607.8622.3318.4251.533.9722.5995,1.6382.0554.6457-.0285,1.3499-.2341,2.0975-.2426.839-.6136,1.5719-1.0984,2.1594-.5044.6093-1.0595,1.0128-1.6538,1.2094-.5121.1686-1.0842.2113-1.7191.1404l-.2262,1.1463Z" fill="#007046" stroke-width="0"></path><path d="M423.6411,267.2291l-14.234-3.226.4338-1.8834,14.2243,3.2233-.4241,1.8862Z" fill="#007046" stroke-width="0"></path><path d="M423.9038,267.6471l-14.9095-3.3778.5819-2.5628,14.9055,3.374-.5779,2.5665ZM409.8276,263.7445l13.5504,3.0664.2734-1.2059-13.5449-3.068-.279,1.2076Z" fill="#007046" stroke-width="0"></path><path d="M425.9741,255.6103l-12.6966-2.0834-.7777,4.7448-1.7049-.2841,1.8716-11.404,1.6969.2769-.7803,4.7589,12.7025,2.0823-.3116,1.9086Z" fill="#007046" stroke-width="0"></path><path d="M426.2599,256.0091l-12.6936-2.0841-.772,4.7435-2.3905-.3878,1.9788-12.1011,2.3886.3929-.7833,4.7596,12.6969,2.0833-.4248,2.5936ZM412.9828,253.1302l12.7015,2.0775.1993-1.221-12.6986-2.0785.7863-4.7603-1.0129-.1666-1.7583,10.7206,1.01.1673.7728-4.739Z" fill="#007046" stroke-width="0"></path><path d="M427.8889,239.766l-6.1653-.4202-8.7711,5.0351.1682-2.3409,4.5765-2.5721c.8574-.4724,1.7132-.914,2.5674-1.3103-.7325-.4879-1.556-1.0784-2.4689-1.7617l-4.0819-3.1113.1481-2.2427,7.9974,6.3764,6.1657.4217-.136,1.926Z" fill="#007046" stroke-width="0"></path><path d="M412.563,245.0092l.2173-3.1809,4.7476-2.6656c.6893-.3796,1.3701-.7311,2.0414-1.0576-.608-.4143-1.2656-.8965-1.9817-1.4324l-4.2374-3.2268.2224-3.0931,8.4134,6.7279,6.4077.4362-.1829,2.6181-6.4043-.4335-9.2435,5.3077ZM413.4455,242.2506l-.0975,1.5005,8.2963-4.7592,5.9181.3985.0822-1.2244-5.9171-.4078-.0856-.0644-7.4732-5.9654-.1007,1.394,3.9417,2.9956c.9122.6815,1.7334,1.2742,2.4413,1.7493l.5189.3464-.5614.2595c-.8219.3892-1.6699.8242-2.5422,1.3001l-4.4208,2.4775Z" fill="#007046" stroke-width="0"></path></svg>